<?xml version="1.0" encoding="UTF-8" standalone="no"?>
<svg
   viewBox="0 0 128 128"
   version="1.1"
   id="svg1193"
   sodipodi:docname="j2o_logo.svg"
   width="128"
   height="128"
   inkscape:version="1.1.2 (b8e25be8, 2022-02-05)"
   xmlns:inkscape="http://www.inkscape.org/namespaces/inkscape"
   xmlns:sodipodi="http://sodipodi.sourceforge.net/DTD/sodipodi-0.dtd"
   xmlns="http://www.w3.org/2000/svg"
   xmlns:svg="http://www.w3.org/2000/svg">
  <sodipodi:namedview
     id="namedview1195"
     pagecolor="#ffffff"
     bordercolor="#666666"
     borderopacity="1.0"
     inkscape:pageshadow="2"
     inkscape:pageopacity="0.0"
     inkscape:pagecheckerboard="0"
     showgrid="false"
     inkscape:zoom="1.2083333"
     inkscape:cx="329.7931"
     inkscape:cy="244.55172"
     inkscape:window-width="1296"
     inkscape:window-height="905"
     inkscape:window-x="2752"
     inkscape:window-y="136"
     inkscape:window-maximized="0"
     inkscape:current-layer="svg1193" />
  <defs
     id="defs1179">
    <linearGradient
       id="uuid-006e1671-2d37-4eea-b6a9-7b84ea41a17f"
       x1="422.64243"
       y1="429.47763"
       x2="316.5408"
       y2="245.70418"
       gradientUnits="userSpaceOnUse">
      <stop
         offset="0"
         stop-color="#282fd8"
         id="stop1174" />
      <stop
         offset="1"
         stop-color="#802992"
         id="stop1176" />
    </linearGradient>
  </defs>
  <g
     id="g1309"
     transform="matrix(0.25858586,0,0,0.25858586,-6.2060606,-14.236044)">
    <g
       id="uuid-2e4a1d49-d463-499e-938b-f59d7671a36d"
       transform="matrix(0.9,0,0,0.825,24,55.05345)">
      <rect
         width="550"
         height="600"
         fill="#0e0026"
         id="rect1181"
         x="0"
         y="0" />
    </g>
    <g
       id="uuid-2e265c54-f025-442c-aaf2-7e8c830c6f60">
      <path
         d="m 194.9055,102.95219 38.73267,22.36127 c 1.55005,0.89996 2.5,2.54999 2.5,4.32996 v 83.1795 c 0.0134,-6e-5 0.0266,-0.003 0.04,-0.003 2.2793,0 4.52637,0.60254 6.5,1.7417 l 24.26001,14.00647 v -115.875 c 0,-1.78003 -0.95007,-3.43005 -2.5,-4.33002 l -44.4502,-25.66614 c -1.547,-0.89325 -3.45312,-0.89331 -5.00012,-1.2e-4 l -20.08264,11.59467 c -3.33325,1.92456 -3.33325,6.73584 2.4e-4,8.66034 z"
         fill="#ffffff"
         id="path1184" />
      <path
         d="m 172.78855,363.76744 91.6499,-52.92285 c 0.1543,-0.089 0.29785,-0.19104 0.43994,-0.29456 1.21509,-0.88153 1.96436,-2.26581 2.04272,-3.7771 0.004,-0.0864 0.0171,-0.1712 0.0171,-0.2583 v -24.73999 l -30.76001,-17.75952 -0.04,0.0231 v 25.52521 c 0,0.0774 -0.0116,0.15265 -0.0151,0.22949 -0.0706,1.53741 -0.84192,2.94788 -2.08789,3.83594 -0.12927,0.0917 -0.25781,0.18457 -0.39697,0.26453 l -47.05835,27.16772 c -0.0139,0.008 -0.0254,0.0182 -0.0393,0.0264 l -13.7522,7.94019 c -1.54712,0.89325 -3.45312,0.89325 -5.00024,0 l -60.84998,-35.13312 c -1.547,-0.89319 -2.49988,-2.54382 -2.49988,-4.33008 v -38.38367 c 0,-3.84888 -4.1665,-6.25452 -7.49976,-4.33026 l -20.80005,12.00726 c -1.54712,0.89313 -2.50024,2.54382 -2.50024,4.33026 v 43.32654 c 0,1.78619 0.95288,3.43671 2.49976,4.32996 l 91.6499,52.92279 c 1.54724,0.89343 3.45349,0.89343 5.00073,0 z"
         fill="#ffffff"
         id="path1186" />
      <path
         d="m 471.36193,273.06046 -96.10177,-55.48443 c -1.547,-0.89307 -3.27344,-1.3396 -5,-1.3396 -1.72644,0 -3.453,0.44653 -5,1.3396 l -51.17946,29.54858 c -3.33335,1.92452 -3.33332,6.73582 7e-5,8.66029 l 20.67911,12.51663 c 1.55986,0.94415 3.51001,0.96433 5.08907,0.0526 L 365.7558,253.3968 c 2.78739,-1.6093 6.22159,-1.6093 9.00898,0 l 65.3957,37.75631 c 3.05191,1.76203 4.93197,5.01838 4.93197,8.54243 v 75.01878 c 0,3.52405 -1.88006,6.78041 -4.93198,8.54244 l -66.00685,38.10899 c -2.40927,1.39099 -5.37762,1.39099 -7.78689,0 l -75.92948,-44.46452 c -1.55054,-0.908 -3.46907,-0.91419 -5.02543,-0.0162 l -21.25321,12.26254 c 0,0 -7.60939,5.15551 5.00002,12.20192 l 96.10154,55.48424 c 1.547,0.89319 3.27356,1.33972 5,1.33972 1.72656,0 3.453,-0.44653 5,-1.33972 l 96.10168,-55.48425 c 3.09401,-1.78633 5,-5.08759 5,-8.66025 V 281.72056 c 0,-3.57259 -1.90596,-6.87381 -4.99991,-8.66011 z"
         fill="url(#uuid-006e1671-2d37-4eea-b6a9-7b84ea41a17f)"
         id="path1188"
         style="fill:url(#uuid-006e1671-2d37-4eea-b6a9-7b84ea41a17f)" />
      <path
         d="M 348.29636,463.11442 328.2175,451.52189 c -1.54712,-0.89319 -3.45312,-0.89313 -5.00012,6e-5 l -53.77917,31.0506 c -1.54712,0.89325 -3.45312,0.89325 -5.00012,6e-5 l -61.54846,-35.22174 c -1.547,-0.89319 -2.5,-2.54376 -2.5,-4.33002 l -0.0222,-23.43243 c 0,-1.55377 0.77051,-3.185 2.42126,-4.27606 0.0179,-0.0107 0.0336,-0.024 0.0516,-0.0345 0.23291,-0.15063 0.48145,-0.29163 0.74902,-0.41925 l 82.56909,-47.63983 c -8.5e-4,-0.002 -10e-4,-0.003 -0.002,-0.005 l 44.17029,-25.4798 c 1.54797,-0.89294 2.50171,-2.54413 2.50171,-4.33118 v -58.66962 c 0,-1.78632 -0.953,-3.43689 -2.5,-4.33008 l -91.6499,-52.91339 c -1.547,-0.89313 -3.453,-0.89313 -5,0 l -78.85815,45.52814 c -3.33337,1.92444 -3.3335,6.73572 0,8.66022 l 20.07886,11.59253 c 1.547,0.89319 3.453,0.89319 5,0 l 53.77917,-31.05066 c 1.547,-0.89319 3.453,-0.89319 5.00012,0 l 60.8501,35.13306 c 1.54688,0.89319 2.49988,2.54376 2.49988,4.33002 v 23.9201 c 0,1.7868 -0.95349,3.43781 -2.50122,4.33081 l -126.73828,73.12421 c -1.54736,0.89276 -2.50085,2.54327 -2.50134,4.32971 l -0.0144,54.39899 c 0.005,-10e-4 0.0102,-0.002 0.0153,-0.004 v 4.27588 c 0,1.78632 0.953,3.43695 2.5,4.33008 l 91.6499,52.91339 c 1.547,0.89319 3.453,0.89319 5,0 l 78.85828,-45.52808 c 3.33325,-1.9245 3.33325,-6.73578 0,-8.66028 z"
         fill="#ffffff"
         id="path1190" />
    </g>
  </g>
</svg>
