<?xml version="1.0" encoding="UTF-8" standalone="no"?>
<svg
   viewBox="0 0 785.01831 815.50916"
   version="1.1"
   id="svg907"
   sodipodi:docname="pointka-1.svg"
   width="785.01831"
   height="815.50916"
   inkscape:version="1.1.2 (b8e25be8, 2022-02-05)"
   xmlns:inkscape="http://www.inkscape.org/namespaces/inkscape"
   xmlns:sodipodi="http://sodipodi.sourceforge.net/DTD/sodipodi-0.dtd"
   xmlns="http://www.w3.org/2000/svg"
   xmlns:svg="http://www.w3.org/2000/svg">
  <defs
     id="defs911" />
  <sodipodi:namedview
     id="namedview909"
     pagecolor="#ffffff"
     bordercolor="#666666"
     borderopacity="1.0"
     inkscape:pageshadow="2"
     inkscape:pageopacity="0.0"
     inkscape:pagecheckerboard="0"
     showgrid="false"
     inkscape:zoom="0.873"
     inkscape:cx="349.94273"
     inkscape:cy="400.34364"
     inkscape:window-width="1312"
     inkscape:window-height="905"
     inkscape:window-x="2967"
     inkscape:window-y="237"
     inkscape:window-maximized="0"
     inkscape:current-layer="svg907" />
  <g
     isolation="isolate"
     id="g905"
     transform="translate(-133.49084,-100)">
    <g
       id="uuid-460e83eb-3f5e-4c73-b369-10790b7879e0">
      <path
         d="m 526,100 c -216.77698,0 -392.50916,175.73218 -392.50916,392.50928 0,130.80908 60.82819,249.95703 166.84045,321.51514 -5.3006,-37.10425 0.99084,-56.59888 2.52148,-60.29443 -7.66406,-6.44043 -13.10083,-10.68311 -20.24561,-17.82812 -31.6272,-31.62695 -56.45264,-68.44312 -73.78674,-109.42554 -17.93567,-42.40479 -27.02979,-87.47778 -27.02979,-133.96704 0,-46.48926 9.09412,-91.5625 27.02979,-133.96729 17.33411,-40.98242 42.15955,-77.79834 73.78674,-109.42578 31.6272,-31.62695 68.44324,-56.45264 109.42566,-73.78662 42.40479,-17.93555 87.47778,-27.02979 133.96716,-27.02979 46.48938,0 91.56238,9.09424 133.96716,27.02979 40.98242,17.33398 77.79846,42.15967 109.42566,73.78662 31.6272,31.62744 56.45264,68.44336 73.78674,109.42578 17.93567,42.40479 27.02979,87.47778 27.02979,133.96729 0,46.48951 -9.09412,91.56226 -27.02979,133.96704 -17.33411,40.98242 -42.15955,77.79858 -73.78674,109.42554 -18.47546,18.47559 -41.53076,35.71509 -63.34375,49.41089 1.28357,5.30908 4.63806,19.43579 7.32983,52.17456 122.198,-66.51392 205.13025,-196.06055 205.13025,-344.97803 0,-216.7771 -175.73218,-392.50928 -392.50916,-392.50928 z"
         fill="#9b85be"
         id="path824" />
      <path
         d="m 273.15723,484.17822 c 0,-12.87695 -10.43945,-23.31641 -23.31641,-23.31641 -12.87696,0 -23.31641,10.43945 -23.31641,23.31641 0,79.76367 31.06152,154.75293 87.46289,211.1543 10.70386,10.7041 22.08044,20.49023 34.02905,29.32959 20.46826,-2.61572 39.67432,-9.26904 56.79517,-19.13525 -78.36829,-42.77344 -131.6543,-125.9541 -131.6543,-221.34863 z"
         fill="#9b85be"
         id="path826" />
      <path
         d="m 823.75781,484.17822 c 0,-76.36035 -28.80664,-149.02539 -81.11328,-204.61035 -8.82617,-9.37793 -23.58203,-9.82617 -32.95996,-1.00098 -9.37793,8.82519 -9.82617,23.58105 -1.00098,32.95996 44.13477,46.89941 68.44141,108.21582 68.44141,172.65137 0,83.61475 -40.94849,157.83447 -103.83289,203.69678 9.11511,12.7959 16.3064,27.0542 21.16882,42.35107 14.81702,-10.24268 28.8252,-21.88477 41.83398,-34.89355 56.40137,-56.40137 87.46289,-131.39062 87.46289,-211.1543 z"
         fill="#9b85be"
         id="path828" />
    </g>
    <g
       id="uuid-cfcdb869-6ba0-4762-9190-c9f422f4adbf">
      <path
         d="m 448.64453,911.58887 c -34.18262,0 -67.94336,-3 -100.34766,-8.91602 -8.02246,-1.46484 -14.83984,-7.12695 -17.79102,-14.77734 -20.34082,-52.73047 -27.30762,-101.58301 -18.2041,-127.57031 7.50879,-16.34961 24.28027,-20.51172 47.46777,-26.2666 22.14453,-5.49609 49.7041,-12.33594 76.83105,-33.28906 4.18262,-3.23047 6.50195,-8.33691 6.20508,-13.66016 -0.52637,-9.40039 -3.33789,-31.31738 -15.94043,-74.99121 51.8252,25.2207 94.45703,40.63574 107.06152,45.01758 -1.55273,5.07129 -3.58691,14.3291 -1.74902,24.08789 1.60938,8.54199 11.40625,17.16016 29.66895,17.16113 h 0.003 c 6.28125,0 13.25195,-1.02051 20.71875,-3.03516 2.55469,-0.68848 5.22461,-1.46094 8.05078,-2.27832 12.37793,-3.58105 26.40625,-7.64062 40.47266,-7.64062 13.40625,0 24.35449,3.75879 33.47168,11.49121 16.05957,13.62012 33.15039,83.32227 38.44336,137.3584 1.22754,12.52734 -5.66504,24.36035 -17.15137,29.44531 -32.50488,14.38965 -120.68652,47.8584 -237.19043,47.86328 h -0.0205 z"
         fill="#ffdcdb"
         id="path831" />
      <path
         d="m 433.0166,619.43176 c 44.47852,21.18945 81.17334,34.8678 96.18262,40.19824 -1.36621,5.71069 -2.47119,13.83887 -0.87451,22.31921 1.9082,10.13257 13.01367,20.35657 33.52246,20.35657 6.62744,0 13.94238,-1.06641 21.74219,-3.1698 2.58838,-0.698 5.27441,-1.4751 8.11816,-2.29785 12.12744,-3.50916 25.87305,-7.48657 39.38428,-7.48657 12.4375,0 22.55664,3.45447 30.93555,10.56067 6.78662,5.75562 15.15137,25.55042 22.37646,52.95105 6.66357,25.27234 12.15918,55.85181 14.70117,81.79968 1.06201,10.83984 -4.90039,21.07837 -14.83691,25.47717 -20.79785,9.20691 -55.30322,22.34216 -101.58057,32.63306 -44.44336,9.88306 -89.53516,14.89417 -134.02246,14.89417 -33.96045,0 -67.49219,-2.97803 -99.66357,-8.85144 -6.68848,-1.22119 -12.37402,-5.94666 -14.8374,-12.33215 -19.67236,-50.99475 -26.80469,-99.86182 -18.22314,-124.68787 6.44434,-13.82056 20.53711,-17.91687 44.77295,-23.93201 22.50098,-5.58459 50.50391,-12.53479 78.28369,-33.9917 5.20557,-4.02063 8.09229,-10.36914 7.72217,-16.98181 -0.60645,-10.8374 -3.57129,-31.04871 -13.70312,-67.45862 M 420.58889,604.6604 c 14.51758,48.62146 17.72852,72.43225 18.30127,82.66809 0.22412,4.00281 -1.51318,7.88696 -4.68604,10.33765 -54.32422,41.95959 -109.43262,25.68262 -125.54248,61.19019 -10.44238,29.48438 -0.24219,82.68005 18.18604,130.44983 3.45557,8.95728 11.30078,15.49976 20.74561,17.224 34.44336,6.28821 68.37939,8.979 101.07178,8.979 97.88574,0 184.45508,-24.15027 238.77734,-48.19849 13.02979,-5.76819 20.85645,-19.23059 19.46729,-33.41223 -4.92236,-50.24414 -21.60352,-124.52563 -39.81006,-139.9668 -10.98145,-9.31323 -23.48242,-12.42188 -36.00781,-12.42188 -17.94482,0 -35.93555,6.38525 -49.54395,10.05493 -7.5791,2.0437 -14.12256,2.89929 -19.70068,2.89929 -16.57324,0 -24.60889,-7.55725 -25.81592,-13.96619 -2.50049,-13.27991 2.90967,-25.79138 2.90967,-25.79138 0,0 -52.41309,-17.24561 -118.35205,-50.04602 v 0 z"
         id="path833" />
      <path
         d="m 553.14334,742.37152 c 0,0 -47.9326,56.04817 -86.98879,54.27289 -39.05619,-1.77528 -49.96149,-38.80258 -49.96149,-38.80258 0,0 -22.31782,91.63264 -27.13644,152.81126 47.53509,7.70671 111.90088,3.31226 142.89367,-0.84659 1.66496,-66.24395 15.6136,-152.72551 21.19305,-167.43499 z"
         fill="#a2bbd4"
         id="path835" />
      <path
         d="m 540.54468,765.32959 c -6.27246,33.38599 -13.74707,90.45605 -15.43188,138.26074 -18.39307,2.18103 -45.88354,4.26929 -74.1521,4.26929 -20.49854,0 -38.73755,-1.06921 -54.33374,-3.18164 4.07983,-42.81812 15.75537,-98.37488 22.12305,-126.74329 0.71851,1.00562 1.48438,2.02087 2.30127,3.03857 11.25464,14.02136 26.74097,21.86621 44.78442,22.6864 0.70898,0.0322 1.43286,0.0486 2.15186,0.0486 26.22314,0 54.67944,-21.78076 72.55713,-38.37866 m 12.59863,-22.95813 h 0.005 z m 0,0 c 0,0 -46.45068,54.31421 -85.15576,54.31421 -0.6145,0 -1.22266,-0.0136 -1.83301,-0.0413 -39.05615,-1.77527 -49.96143,-38.80261 -49.96143,-38.80261 0,0 -22.31787,91.63269 -27.13647,152.81128 19.01221,3.0824 40.71924,4.22913 61.90405,4.22913 31.78223,0 62.39282,-2.5802 80.9895,-5.07568 1.66504,-66.24402 15.61377,-152.72559 21.19312,-167.43506 v 0 z"
         id="path837" />
      <path
         d="m 413.50515,914.4566 c -21.63008,-1.30462 -43.6727,-3.86604 -65.91821,-7.92758 -9.44265,-1.72402 -17.28485,-8.26833 -20.73957,-17.22382 -18.42786,-47.76953 -28.62797,-100.96468 -18.18563,-130.44892 16.11453,-35.51773 73.88552,-21.64153 130.35638,-67.96792 0,0 -5.9176,64.58643 -16.06207,113.61801 -10.14447,49.03158 -10.10992,108.31135 -9.45089,109.95023 z"
         fill="#3fc6b4"
         id="path839" />
      <path
         d="m 503.82962,912.99393 c 74.49962,-6.75054 139.0879,-26.06736 182.93781,-45.38512 13.4265,-5.91494 21.53151,-19.76417 20.07772,-34.36362 -5.00205,-50.23224 -21.6177,-123.93916 -39.74565,-139.3135 -26.71376,-22.65597 -62.44481,-9.9507 -85.55166,-3.71964 -20.20444,5.44839 -36.09931,1.25987 -42.86037,-3.88871 0,0 16.48476,26.54468 -9.5527,103.64262 -26.03746,77.09794 -25.24915,106.7386 -25.30516,123.02796 z"
         fill="#3fc6b4"
         id="path841" />
      <path
         id="uuid-66848d8f-d8b1-404b-b794-f790a0d7784b"
         d="m 551.08506,711.06175 c -2.41033,0.52855 -4.8435,0.92197 -7.29125,1.18932"
         fill="#ffd3e2"
         mix-blend-mode="multiply"
         opacity="0.7" />
      <path
         d="m 619.75867,609.73263 c 25.09099,-44.88499 60.78778,-113.26956 25.36116,-191.05409 -31.10969,-68.30607 -78.77318,-90.47455 -128.83471,-89.94759 -64.24828,0.6763 -105.16429,38.21082 -116.9995,80.14128 -11.5998,41.09644 -43.98876,191.33598 85.2589,254.28458 5.29822,2.58044 11.18424,3.71664 17.06284,3.302 25.25016,-1.78102 87.71791,-2.2842 118.15131,-56.72617 z"
         fill="#ffdcdb"
         stroke="#000000"
         stroke-linecap="round"
         stroke-linejoin="round"
         stroke-width="7.84788"
         id="path844" />
      <path
         d="m 636.63398,536.79843 -6.72095,-0.57609 c -0.27152,-0.0233 -0.52117,-0.14612 -0.70041,-0.35141 -0.1955,-0.22392 0.32859,-2.41235 0.70593,-3.86874 0.17143,-0.66166 -0.32548,-1.30707 -1.00894,-1.31487 l -5.31855,-0.0606 c -7.64377,-5.98345 -22.04263,-13.34226 -39.10457,-2.98045 -0.91288,0.5544 -0.54338,1.95462 0.52452,1.97186 21.51321,0.34715 37.16679,4.26122 45.38875,22.54973 0.40783,0.90716 1.72577,0.78487 1.98599,-0.1751 0.64325,-2.37306 0.20755,-5.28243 -0.0112,-6.43087 -0.0611,-0.32079 0.0311,-0.64569 0.24862,-0.88929 0.82078,-0.91927 2.93109,-3.36567 4.81028,-6.24096 0.437,-0.66864 -0.004,-1.56497 -0.79943,-1.63319 z"
         id="path846" />
      <path
         d="m 471.73084,469.48223 3.42962,3.42962 c 0.23509,0.23509 0.55956,0.34625 0.88884,0.30034 0.35101,-0.0489 0.87479,-0.1152 1.54624,-0.181 0,0 -3.09514,-9.32224 5.09043,-0.24813 11.45903,-0.0325 33.28288,3.34989 39.47355,28.55477 0.26121,1.06349 -1.04967,1.78007 -1.80131,0.98367 -19.61452,-20.78246 -35.85366,-22.61311 -57.18344,-21.27439 -0.86068,0.054 -1.43854,-0.89047 -0.97599,-1.6183 1.38476,-2.17893 4.69921,-3.24627 6.32353,-3.65303 0.48681,-0.12191 0.82156,-0.56473 0.79024,-1.0656 -0.0522,-0.8356 0.0167,-2.33428 0.64152,-4.73246 0.20758,-0.79668 1.19463,-1.07762 1.77678,-0.49548 z"
         id="path848" />
      <path
         d="m 563.27845,540.9018 -5.11954,-12.47888 c -1.00425,-2.44786 -4.3978,-2.62147 -5.64815,-0.28969 -2.30799,4.3042 -4.86955,11.16022 -4.49044,19.98061 0.0878,2.04312 2.05282,3.50359 4.01012,2.91115 4.58879,-1.38896 8.51469,-4.72606 10.54325,-6.70297 0.91351,-0.89026 1.18891,-2.2401 0.70476,-3.42021 z"
         fill="#fbada9"
         id="path850" />
      <path
         d="m 651.08586,493.62813 c -3.5044,-8.12037 -15.36571,-28.66832 -45.6974,-28.77502 -0.53291,-0.002 -0.64232,-0.7611 -0.1276,-0.89917 28.46933,-7.63684 44.20669,16.59072 46.6968,29.39888 0.10497,0.53991 -0.65387,0.7803 -0.8718,0.27531 z"
         id="path852" />
      <path
         d="m 539.63499,440.544 c -5.1529,-7.1881 -21.11698,-24.73966 -50.77599,-18.38623 -0.52109,0.11163 -0.78963,-0.6069 -0.31611,-0.85139 26.19072,-13.52294 46.72538,6.79865 51.8853,18.78301 0.21751,0.50518 -0.47275,0.90162 -0.7932,0.4546 z"
         id="path854" />
      <path
         d="m 559.30221,588.21558 c -8.04314,-6.10019 -37.25162,-26.43413 -74.6438,-30.9544 -1.53463,-0.18552 -3.00317,0.68939 -3.62387,2.1051 -14.95483,34.10932 5.24083,60.66026 19.86481,67.10473 14.61449,6.44028 42.7772,1.50974 59.44074,-33.93162 0.71133,-1.51291 0.29415,-3.31355 -1.03787,-4.3238 z"
         fill="#8d2d30"
         id="path856" />
      <path
         d="m 484.66776,557.26232 c 37.3786,4.52144 66.57776,24.84365 74.62856,30.94876 1.32981,1.00843 1.75681,2.81098 1.04193,4.31905 -0.52316,1.10363 -1.05787,2.17659 -1.60089,3.22623 -13.12531,-2.5009 -51.82511,-11.49468 -78.4989,-34.44863 0.2616,-0.6492 0.53113,-1.30018 0.8132,-1.95384 0.61037,-1.4145 2.08667,-2.27657 3.6161,-2.09157 z"
         fill="#ffffff"
         id="path858" />
      <path
         d="m 511.38196,591.8107 c 16.07959,8.82802 20.22836,22.80727 20.92944,32.21049 -11.79177,6.0772 -23.55831,5.91074 -31.41207,2.4498 -9.72548,-4.28579 -21.90476,-17.47018 -24.58109,-35.85043 9.70558,-3.80191 22.42081,-5.75102 35.06371,1.19014 z"
         fill="#d45d62"
         id="path860" />
      <path
         d="m 559.30221,588.21558 c -8.04314,-6.10019 -37.25162,-26.43413 -74.6438,-30.9544 -1.53463,-0.18552 -3.00317,0.68939 -3.62387,2.1051 -14.95483,34.10932 5.24083,60.66026 19.86481,67.10473 14.61449,6.44028 42.7772,1.50974 59.44074,-33.93162 0.71133,-1.51291 0.29415,-3.31355 -1.03787,-4.3238 z"
         fill="none"
         stroke="#000000"
         stroke-miterlimit="10"
         stroke-width="1.1483"
         id="path862" />
      <path
         d="m 596.11323,645.32021 c 0.24922,-0.008 0.49948,-0.0384 0.75078,-0.0927 1.3195,-0.28881 32.62786,-7.31974 61.39663,-31.36649 26.25411,-21.96448 54.56289,-62.71706 42.22576,-133.40791 15.36616,-52.46588 10.8473,-97.51058 -12.90821,-134.28734 -22.26041,-35.19541 -60.7498,-62.08485 -114.3545,-79.95294 -16.69455,-5.64606 -33.79462,-8.74448 -50.85395,-9.18848 -80.03475,-2.08303 -152.70648,56.52068 -183.80118,115.99052 -18.78491,35.55828 -38.28108,88.37557 -22.81436,136.81836 11.69847,35.811 41.44865,63.68747 88.55874,82.753 0.47314,0.18892 0.9771,0.27548 1.48214,0.26359 0.8611,-0.0203 1.72395,-0.32731 2.42883,-0.89398 1.11829,-0.89884 1.65294,-2.30109 1.38422,-3.62762 -0.0669,-0.33271 -6.56827,-33.67242 0.98105,-72.12666 9.13954,-47.10602 33.8256,-80.52318 73.33015,-99.4026 -5.81093,8.56384 -13.60387,17.88273 -13.71297,18.012 -0.77708,0.9255 -1.04982,2.15916 -0.73138,3.29792 0.31965,1.13864 1.1916,2.03511 2.33076,2.39598 3.34866,1.06107 82.64896,25.6757 102.74516,25.5601 8.51655,-0.0707 15.40425,-3.23963 20.64924,-7.10876 -2.01327,4.10576 -4.67646,8.5464 -8.15947,12.76337 -0.8385,1.01445 -1.03967,2.38486 -0.52534,3.57625 0.51564,1.19069 1.66566,2.01166 3.0015,2.14238 18.58404,1.81387 40.84211,31.29411 41.06615,31.59028 0.67231,0.89094 1.75902,1.43157 2.91407,1.46021 0,0 0.20942,0.005 0.60005,2e-4 2.93836,-0.0367 14.78526,-0.61705 25.1671,-7.237 -0.81991,3.11335 -1.64908,6.3277 -2.49768,9.61821 -9.83095,37.82995 -23.54486,89.82751 -63.28814,126.4303 -1.22358,1.12438 -1.52553,2.84557 -0.7421,4.2195 0.66597,1.16698 1.98018,1.84426 3.37693,1.80029 z"
         fill="#ef638c"
         id="path864" />
      <path
         d="m 522.32605,260.60215 c 16.15545,0.41129 32.84814,3.23812 49.84629,8.97597 103.25366,33.99585 155.87564,104.02181 124.54654,210.62928 24.16494,134.63132 -100.61487,161.57533 -100.61487,161.57533 48.78058,-44.93916 58.58344,-111.0112 70.20401,-150.20535 -9.87231,14.50566 -29.02265,15.35493 -32.24775,15.39351 -0.30389,0.004 -0.46671,7e-5 -0.46671,7e-5 0,0 -23.20897,-31.04679 -43.68201,-33.05538 11.79393,-14.28909 14.58689,-30.72819 14.58689,-30.72819 0,0 -10.25159,19.17511 -29.88687,19.32809 -0.0192,1.7e-4 -0.0359,2.6e-4 -0.0551,3.6e-4 -19.73881,0.10576 -101.56012,-25.44354 -101.56012,-25.44354 0,0 15.34418,-18.30935 19.5408,-27.90664 -113.04995,44.69429 -86.6204,180.04841 -86.6204,180.04841 -121.52051,-50.12287 -99.75346,-147.41893 -64.1817,-214.56677 29.03041,-55.52859 99.362,-116.11312 180.59101,-114.04516 m 0.0866,-7.15593 c -38.63644,-1.02757 -77.78695,11.44893 -113.49404,36.2868 -30.68194,21.35761 -57.50214,51.13574 -73.5161,81.64843 -19.14402,36.21631 -39.00672,90.08918 -23.18452,139.77411 11.99889,36.79812 42.39721,65.36556 90.48994,84.80446 0.94564,0.37786 1.95383,0.54938 2.96248,0.52513 1.72474,-0.0415 3.44976,-0.65524 4.86112,-1.78883 2.23563,-1.79581 3.3045,-4.59891 2.76851,-7.25093 -0.0659,-0.32696 -6.46718,-33.16508 0.97271,-70.93356 7.74152,-39.71796 26.86773,-69.42737 56.89589,-88.5722 -1.5032,1.89218 -2.81407,3.4935 -3.74941,4.60855 -1.55354,1.85154 -2.10234,4.32065 -1.46517,6.59863 0.63778,2.27751 2.38084,4.07037 4.65984,4.79181 8.45752,2.67126 83.60175,25.80571 103.93284,25.67551 l 0.0738,-5.4e-4 c 3.92495,-0.0347 7.534,-0.66383 10.82534,-1.69391 -0.41154,0.53706 -0.83627,1.07142 -1.27475,1.60204 -1.67748,2.02955 -2.08197,4.77276 -1.05335,7.15581 1.02953,2.38226 3.33069,4.02433 6.00313,4.28455 12.4757,1.21114 30.17718,19.1433 38.4472,30.12457 1.34193,1.77924 3.52507,2.85923 5.8335,2.91976 0,0 0.25535,0.007 0.7321,4.8e-4 2.46318,-0.032 10.70481,-0.42212 19.54589,-3.95553 -0.17021,0.65774 -0.34109,1.31825 -0.51293,1.98231 -9.74793,37.43732 -23.3431,88.89303 -62.31274,124.78295 -2.44624,2.24993 -3.05388,5.6936 -1.48737,8.44375 1.33125,2.3338 3.95913,3.6884 6.7552,3.59902 0.49753,-0.0159 1.00047,-0.0775 1.50214,-0.18739 1.36091,-0.29802 33.63194,-7.55497 63.14557,-32.22315 17.29424,-14.46592 29.94607,-31.94613 37.6282,-51.97282 9.26671,-24.31739 11.19634,-52.46666 5.85393,-83.77756 15.35893,-53.10938 10.58706,-98.82344 -13.64874,-136.30043 -22.75206,-35.94752 -61.90518,-63.37445 -116.33054,-81.54983 -17.0204,-5.76879 -34.45903,-8.93921 -51.85964,-9.40199 v 0 z"
         id="path866" />
      <path
         d="m 371.74498,576.36889 c 0,0 -8.82919,-19.38748 0,-53.91499"
         fill="none"
         stroke="#000000"
         stroke-linecap="round"
         stroke-linejoin="round"
         stroke-width="7.84792"
         id="path868" />
      <path
         d="m 333.53972,541.82121 c 0,0 -3.47627,-23.9579 7.66231,-47.91581"
         fill="none"
         stroke="#000000"
         stroke-linecap="round"
         stroke-linejoin="round"
         stroke-width="7.84792"
         id="path870" />
      <g
         id="uuid-e94d7a57-56f5-4b67-bb91-fb4e93f18050">
        <path
           d="m 550.84663,711.31595 c 9.34583,-2.04939 18.5866,-6.38435 26.76305,-13.02287 0,0 -13.99309,3.19465 -27.98618,0.15202 1.00227,6.93527 1.22313,12.87085 1.22313,12.87085 z"
           fill="#2f887e"
           id="path872" />
      </g>
      <path
         d="m 684.88215,867.87762 c 0,0 21.94984,-85.43547 -19.13524,-174.70676 7.86045,10.47945 14.6491,22.97589 20.22855,42.50399 4.6761,16.36635 15.16124,54.51985 20.706,96.81617 2.02336,15.43453 -6.98371,30.21433 -21.68035,35.34535 -0.0788,0.0275 -0.11896,0.0412 -0.11896,0.0412 z"
         fill="#2f887e"
         id="path875" />
      <path
         d="m 604.14866,813.58053 c -0.008,27.88663 -1.51561,68.76201 -35.29257,86.53742 18.26004,-3.80417 60.54268,-12.36335 60.54268,-12.36335 0,0 -13.10937,-16.76438 -22.42283,-74.38935 -0.27915,-1.7272 -2.82681,-1.53434 -2.82728,0.21527 z"
         fill="#2f887e"
         id="path877" />
      <path
         d="m 378.50309,825.97147 c 0.14107,-2.45053 -3.34063,-3.04821 -3.95069,-0.67064 -5.56003,21.66893 -22.92702,41.70752 -46.78798,57.12787 -0.76083,0.25361 6.87056,16.67253 6.87056,16.67253 0,0 50.4443,10.43161 51.20513,9.92439 0.76083,-0.50722 -17.3432,-1.71133 -18.26713,-27.8894 -0.77549,-21.97226 9.82289,-35.9311 10.93012,-55.16474 z"
         fill="#2f887e"
         id="path879" />
      <path
         d="m 446.73389,687.44727 c 0.18213,6.4104 -2.67725,12.51746 -7.73633,16.42493 -0.4668,0.36023 -0.93311,0.71033 -1.3999,1.06091 -0.90625,8.48145 -2.23438,20.18726 -3.94727,33.39429 3.65625,-5.92944 10.69727,-18.63159 14.05664,-33.31396 0.5791,-7.04346 0.21143,-13.77734 -0.97314,-17.56616 z"
         fill="#fcc4c9"
         id="path881" />
      <path
         d="m 543.7662,711.80935 c 0,0 -0.17047,-8.29007 -1.31221,-13.37683 -11.6319,-5.88037 -14.33742,-13.55521 -14.83241,-22.22847 -0.26103,-4.57379 0.14204,-7.90069 0.14204,-7.90069 -32.02454,4.58282 -42.59491,-0.55182 -42.59491,-0.55182 -26.33742,-11.73313 -47.80215,-32.00383 -47.80215,-32.00383 l 3.38827,13.81064 c 16.29358,20.78082 44.68852,52.35393 71.54893,59.49404 10.32472,2.74455 21.02601,3.89682 31.46243,2.75696"
         fill="#fcc0c8"
         id="path883" />
      <path
         d="m 430.41016,706.04565 c -2.40234,22.15417 -7.39062,63.49341 -14.33105,97.03784 -5.43359,26.26343 -7.84521,54.61816 -8.91162,73.78015 -0.5127,9.21985 -0.83691,18.6488 -0.91211,26.5498 -0.0127,1.302 -0.019,2.46899 -0.02,3.51587 -19.41553,-1.4408 -38.68408,-3.8938 -57.38721,-7.30859 -6.96338,-1.27148 -12.8833,-6.19275 -15.44922,-12.84302 -9.40283,-24.37537 -16.15674,-48.79761 -19.53076,-70.62671 -3.56055,-23.03516 -3.10596,-41.92505 1.31201,-54.66199 6.84619,-14.71045 23.26074,-19.43018 45.92627,-25.94653 20.1626,-5.79675 44.51904,-12.79895 69.30371,-29.49683 m 8.60791,-15.15735 c -56.4707,46.32642 -114.2417,32.4502 -130.35645,67.96802 -10.44238,29.48413 -0.24219,82.67932 18.18555,130.44885 3.45508,8.95557 11.29736,15.49976 20.73975,17.22388 22.24561,4.06152 44.28809,6.62292 65.91846,7.92749 -0.65918,-1.63879 -0.69385,-60.91858 9.45068,-109.9502 10.14453,-49.03162 16.06201,-113.61804 16.06201,-113.61804 z"
         id="path885" />
      <path
         d="m 629.4082,688.0166 v 0 c 13.3623,4.9e-4 24.20752,3.68726 33.14941,11.27075 14.93506,12.66687 32.01074,81.53796 37.2998,134.65369 1.15381,11.59021 -5.24414,22.5376 -15.9209,27.24121 -29.44629,12.97217 -90.40283,35.57263 -173.03076,44.07202 0.32666,-17.27722 2.92334,-48.02026 24.88232,-113.04138 11.08398,-32.82043 16.09717,-60.86462 14.8999,-83.35327 -0.21143,-3.97131 -0.60938,-7.44604 -1.10449,-10.45447 4.15771,0.90771 8.69238,1.38684 13.42041,1.38684 6.62891,0 13.4834,-0.94189 20.37256,-2.79968 1.91846,-0.51746 3.92383,-1.07886 6.00244,-1.66125 11.63428,-3.25879 26.11328,-7.31445 40.0293,-7.31445 m 0,-7.02246 c -17.3833,0 -34.67676,5.66272 -47.86035,9.2179 -6.71582,1.81104 -12.95752,2.5575 -18.54395,2.5575 -11.22021,0 -19.80273,-3.00903 -24.31641,-6.44617 0,0 16.48486,26.54468 -9.55273,103.64258 -26.0376,77.0979 -25.24902,106.73865 -25.30518,123.02795 74.49951,-6.75049 139.08789,-26.06738 182.93799,-45.38513 13.42627,-5.91492 21.53125,-19.76416 20.07764,-34.36353 -5.00195,-50.2323 -21.61768,-123.93921 -39.74561,-139.3136 -11.47217,-9.72937 -24.60742,-12.9375 -37.69141,-12.9375 v 0 z"
         id="path887" />
    </g>
    <g
       id="uuid-048e93a5-1b75-4062-8e6e-f37ce08ea534">
      <path
         d="m 299.35352,310.49023 c 6.48926,5.25 8.49316,15.44922 4.47559,22.77637 l -12.50293,22.85254 c -0.1709,0.31152 -0.082,0.74805 0.19336,0.96875 l 8.31348,6.72559 c 1.37988,1.11914 1.80664,3.28711 0.95117,4.8457 l -5.16406,9.41992 c -0.85547,1.55957 -2.66797,1.92188 -4.04883,0.80176 l -40.07227,-32.42578 c -1.37988,-1.11914 -1.80566,-3.28809 -0.95117,-4.84668 l 19.53906,-35.63867 c 4.01855,-7.32812 12.53223,-9.01465 19.02637,-3.76172 l 10.24023,8.28223 z m -20.38672,8.98047 -10.11328,18.44629 c -0.1709,0.31152 -0.083,0.74902 0.19336,0.9707 l 10.19043,8.24512 c 0.28223,0.22461 0.64062,0.15332 0.81152,-0.1582 l 10.11328,-18.44727 c 0.76074,-1.38672 0.37695,-3.31543 -0.8457,-4.31348 l -6.73828,-5.45605 c -1.23242,-0.99512 -2.85645,-0.67773 -3.61133,0.71289 z"
         fill="#ebd467"
         id="path890" />
      <path
         d="m 340.41309,252.3877 14.79297,20.27344 c 4.55664,6.24512 3.91895,15.88379 -1.42285,21.48438 L 333.3545,315.5674 c -5.45801,5.72266 -13.61133,5.08398 -18.18359,-1.18359 L 300.37794,294.1094 c -4.55762,-6.24512 -3.91895,-15.88379 1.42188,-21.48438 l 20.42969,-21.42188 c 5.45996,-5.72559 13.61133,-5.08008 18.18359,1.18457 z m -14.07129,49.15234 c 0.27051,0.0176 0.53809,-0.0996 0.75586,-0.32715 l 15.38477,-16.13184 c 0.49609,-0.51953 0.55859,-1.44824 0.13672,-2.02734 l -12.80078,-17.53418 c -0.18555,-0.25293 -0.43555,-0.40332 -0.70508,-0.41992 -0.27051,-0.0176 -0.53906,0.0986 -0.75684,0.32617 l -15.37891,16.12598 c -0.49609,0.52051 -0.55957,1.44727 -0.13574,2.02539 l 12.7959,17.54102 c 0.18457,0.25293 0.43555,0.40234 0.7041,0.42188 z"
         fill="#ebd467"
         id="path892" />
      <path
         d="m 360.16992,226.53027 20.19336,41.72363 c 0.80762,1.67285 0.26367,3.83887 -1.2373,4.93262 l -7.8252,5.70117 c -0.75,0.5459 -1.61719,0.73242 -2.44727,0.52344 -0.82422,-0.20605 -1.49902,-0.77734 -1.90039,-1.6084 l -20.19434,-41.72266 c -0.80762,-1.67188 -0.26367,-3.83984 1.2373,-4.93359 l 7.83105,-5.7041 c 1.54688,-1.12695 3.50977,-0.63574 4.34277,1.08789 z"
         fill="#ebd467"
         id="path894" />
      <path
         d="m 421.40332,194.18262 12.57324,44.5918 c 0.50195,1.78906 -0.41211,3.82617 -2.08203,4.64062 l -9.54199,4.65137 c -0.91895,0.44824 -1.91797,0.43555 -2.74219,-0.0342 l -26.40625,-18.0625 c -0.1084,-0.0606 -0.2207,0.0137 -0.25195,0.0371 -0.0684,0.0527 -0.0908,0.11816 -0.0674,0.19629 l 9.8e-4,0.003 7.08496,25.13867 c 0.50195,1.78711 -0.41309,3.8252 -2.08301,4.63965 l -8.63965,4.21191 c -1.71973,0.83789 -3.5752,0.0166 -4.0918,-1.82715 L 372.58301,217.7793 c -0.50195,-1.78906 0.41211,-3.82715 2.08203,-4.64062 l 11.01758,-5.37109 c 0.92578,-0.45117 1.9248,-0.4375 2.74512,0.0371 l 24.38379,16.84863 c 0.10547,0.0586 0.21484,-0.0117 0.24609,-0.0361 0.0479,-0.0352 0.0977,-0.10156 0.0703,-0.2041 l -6.54688,-23.20703 c -0.50293,-1.78906 0.41211,-3.82715 2.08203,-4.6416 l 8.64062,-4.21191 c 1.72266,-0.83984 3.57324,-0.0117 4.09961,1.83008 z"
         fill="#ebd467"
         id="path896" />
      <path
         d="m 485.10059,179.375 v 0.002 l 0.30957,7.48535 c 0.0762,1.85547 -1.28418,3.62695 -3.09668,4.0332 l -13.81445,3.09668 c -0.0752,0.0166 -0.15332,0.11816 -0.15039,0.19629 l 1.47559,35.35645 c 0.0742,1.85645 -1.28711,3.62695 -3.09766,4.0332 l -9.44629,2.11816 c -0.9043,0.20215 -1.77637,0.0283 -2.45312,-0.49219 -0.6748,-0.51758 -1.06641,-1.31055 -1.10449,-2.23242 l -1.47559,-35.35254 -13.79492,3.10938 c -0.90625,0.20312 -1.77734,0.0273 -2.4541,-0.49316 -0.6748,-0.51758 -1.06641,-1.30957 -1.10449,-2.23145 l -0.31641,-7.48242 c -0.0752,-1.85547 1.28613,-3.62793 3.09766,-4.03418 l 43.86816,-9.83496 c 1.86133,-0.41699 3.47168,0.80762 3.55762,2.72266 z"
         fill="#ebd467"
         id="path898" />
      <path
         d="m 516.24902,173.1875 c 0.43457,-1.72363 2.22266,-3.02246 3.99707,-2.90332 l 10.7334,0.72168 c 1.77539,0.11914 2.86621,1.61035 2.43164,3.33496 l -4.83887,19.28223 c 0,0 -0.30957,1.32129 0.86328,0.58887 l 24.47461,-20.60254 c 0.78809,-0.66797 1.79004,-1.01074 2.73438,-0.94727 l 16.73047,1.12402 c 1.0957,0.0742 1.37305,1.35254 0.47168,2.12695 l -28.81836,24.26367 c -0.26367,0.2168 -0.34863,0.56055 -0.20508,0.80566 l 15.80371,27.13281 c 0.49609,0.86133 -0.4043,2.05957 -1.49902,1.98633 l -16.73145,-1.12402 c -0.94531,-0.0644 -1.74023,-0.53516 -2.1748,-1.27637 l -9.27246,-15.91992 -8.17578,6.8418 c -0.37793,0.31543 -0.64844,0.72949 -0.7627,1.17676 l -1.12891,4.49219 c -0.43457,1.72266 -2.2207,3.02246 -3.99707,2.90332 l -10.7334,-0.72168 c -1.77539,-0.11914 -2.86621,-1.61133 -2.43066,-3.33496 z"
         fill="#3fc6b4"
         id="path900" />
      <path
         d="m 563.55793,227.12974 47.45605,-36.61035 c 2.32324,-1.59668 4.53223,-1.43164 7.3252,-0.59277 l -0.0166,0.0498 c 0.0176,-9.8e-4 0.0244,9.8e-4 0.0381,0.006 l 0.0156,-0.0439 c 0.76855,0.23047 1.5752,0.51562 2.45898,0.83398 0.12891,0.0449 0.2793,0.0957 0.4082,0.14062 0.31152,0.11523 0.58984,0.19531 0.91699,0.31445 1.13184,0.3877 2.35938,0.84082 3.78516,1.3291 0,0 2.71289,0.84277 2.73535,4.01953 l -0.79492,52.6123 c -0.0117,0.87598 -0.51074,1.76855 -1.30273,2.35352 -0.79883,0.58301 -1.77832,0.77539 -2.58105,0.5 l -12.30176,-4.21875 c -0.85254,-0.29199 -1.37207,-1.06445 -1.34082,-1.99609 l 0.15527,-4.93359 -26.03711,-8.92773 -1.6084,1.25781 -3.00781,2.16992 c -0.87891,0.62598 -2.03516,0.82227 -2.99512,0.49316 l -12.99023,-4.4541 c -0.90918,-0.3125 -1.50684,-1.04492 -1.57324,-1.9248 -0.0644,-0.88477 0.41309,-1.78613 1.25488,-2.37793 z m 33.75586,-5.12695 13.65527,4.68262 0.38086,-15.5791 z"
         fill="#3fc6b4"
         id="path902" />
    </g>
  </g>
</svg>
