<?xml version="1.0" encoding="UTF-8" standalone="no"?>
<!-- Generator: Adobe Illustrator 27.2.0, SVG Export Plug-In . SVG Version: 6.00 Build 0)  -->

<svg
   version="1.1"
   x="0px"
   y="0px"
   viewBox="0 0 845.6987 816.72317"
   xml:space="preserve"
   id="svg951"
   sodipodi:docname="promptka-logo.svg"
   width="845.69867"
   height="816.72321"
   inkscape:version="1.1.2 (b8e25be8, 2022-02-05)"
   xmlns:inkscape="http://www.inkscape.org/namespaces/inkscape"
   xmlns:sodipodi="http://sodipodi.sourceforge.net/DTD/sodipodi-0.dtd"
   xmlns="http://www.w3.org/2000/svg"
   xmlns:svg="http://www.w3.org/2000/svg"><defs
   id="defs955">
	
</defs><sodipodi:namedview
   id="namedview953"
   pagecolor="#ffffff"
   bordercolor="#666666"
   borderopacity="1.0"
   inkscape:pageshadow="2"
   inkscape:pageopacity="0.0"
   inkscape:pagecheckerboard="0"
   showgrid="false"
   inkscape:zoom="0.68267125"
   inkscape:cx="481.19794"
   inkscape:cy="470.9441"
   inkscape:window-width="1312"
   inkscape:window-height="905"
   inkscape:window-x="3017"
   inkscape:window-y="156"
   inkscape:window-maximized="0"
   inkscape:current-layer="svg951" />
<style
   type="text/css"
   id="style824">
	.st0{fill:#757575;}
	.st1{fill:#F08334;}
	.st2{fill:#D4D4D4;}
	.st3{fill:#EB4F2E;}
	.st4{fill:#1B65A9;}
	.st5{display:none;}
	.st6{display:inline;}
</style>



<g
   id="BG"
   transform="translate(-183.66635,-168.86393)">
	<g
   id="g852">
		<g
   id="g850">
			<path
   class="st1"
   d="m 669.1,624.7 c 0,0 16.9,-29.9 52.1,-26.7 -8.8,26.8 -52.1,26.7 -52.1,26.7 z"
   id="path826" />
			<path
   class="st1"
   d="m 713.9,622.3 c 0,0 25.6,-23 57.9,-8.7 -16.9,22.7 -57.9,8.7 -57.9,8.7 z"
   id="path828" />
			<path
   class="st1"
   d="m 414.3,554.1 c 0,0 0,-41.9 -39.2,-59.6 -6.8,33.6 39.2,59.6 39.2,59.6 z"
   id="path830" />
			<path
   class="st1"
   d="m 377.2,477.4 c 0,0 -17.9,-37.9 -60.9,-37.1 8.2,33.4 60.9,37.1 60.9,37.1 z"
   id="path832" />
			<path
   class="st1"
   d="m 361.8,520.6 c 0,0 -11.2,-33.4 -47.2,-37 3.5,28.7 47.2,37 47.2,37 z"
   id="path834" />
			<path
   class="st1"
   d="m 416.8,519.3 c 0,0 21.6,-33.1 -0.3,-67.3 -22.8,23.1 0.3,67.3 0.3,67.3 z"
   id="path836" />
			<path
   class="st1"
   d="m 394.1,469.6 c 0,0 8.2,-31.6 -18,-52.5 -11.6,24 18,52.5 18,52.5 z"
   id="path838" />
			<path
   class="st1"
   d="m 741.5,594.5 c 0,0 11.5,-23.8 38.7,-23 -5.4,21 -38.7,23 -38.7,23 z"
   id="path840" />
			<path
   class="st1"
   d="m 783.7,561.2 c 0,0 20.6,-16.6 44.8,-4.2 -13.8,16.7 -44.8,4.2 -44.8,4.2 z"
   id="path842" />
			<path
   class="st1"
   d="m 780.6,590 c 0,0 15.6,-15.9 37,-8 -9.9,15.3 -37,8 -37,8 z"
   id="path844" />
			<path
   class="st1"
   d="m 749.7,574.1 c 0,0 -3.1,-24.8 18.8,-38.2 6.5,19.5 -18.8,38.2 -18.8,38.2 z"
   id="path846" />
			<path
   class="st1"
   d="m 776.3,552.1 c 0,0 4.1,-20.2 24.7,-24.9 0,17 -24.7,24.9 -24.7,24.9 z"
   id="path848" />
		</g>
	</g>
	<g
   id="g866">
		<g
   id="g864">
			<g
   id="g858">
				<g
   id="g856">
					<path
   class="st1"
   d="m 801.3,735.4 c -11.7,9 -27.7,11.2 -38.8,21 1.7,12.8 -0.2,26.7 -5.1,37.9 -3.9,9 -10.5,16.1 -19.7,19.6 -3.9,1.5 -8,2.6 -11.7,4.6 -5.1,2.7 -9.9,5.8 -15.2,8.3 -6.6,3.1 -15.7,-1.3 -17.9,-8.1 -4.5,-13.6 -5.6,-28 -3.7,-42.2 1.6,-12.1 6.8,-23.5 11,-35 8.7,-24 18.5,-47.7 38.4,-64.6 2.7,-2.3 6.2,-3 9.5,-2.5 1.1,-2.4 2.4,-4.7 4,-6.7 3.9,-4.9 10.2,-6.4 15.4,-9.4 5.6,-3.3 10.9,-7.2 16,-11.1 -2.1,-0.3 -4.2,-0.7 -6.3,-1 -24.1,-3.6 -48.3,-5.3 -72.6,-4.9 -23.8,0.4 -47.9,2.5 -71.5,5.7 -5.9,0.8 -11.6,1.8 -17.2,3.1 -0.9,1.1 -1.7,2.3 -2.6,3.5 -2.7,3.8 -7,5.7 -11.5,6 -2.6,2.6 -5,5.4 -7.2,8.7 -2.1,3.2 -5.5,5.1 -9.2,5.8 -3.4,3.2 -6.9,6.3 -10.4,9.3 -12.7,10.9 -27.5,18.6 -43.7,16.4 -1.2,0.6 -2.5,1.3 -3.7,1.9 -7.8,3.9 -16.2,5.9 -24.6,2.2 -7.7,-3.4 -11.8,-11.3 -12.8,-19.3 -0.5,-0.3 -0.9,-0.6 -1.3,-1 -7.8,-6.7 -12.2,-15.3 -16.7,-24.4 -0.5,-1 -1,-2 -1.5,-3 0,0 0,0 0,0 0,-0.1 -0.2,-0.3 -0.5,-0.8 -1.3,-2.2 -2.7,-4.3 -4,-6.4 -2.6,-4.1 -5.3,-8.1 -7.8,-12.2 -10.1,-16.9 -19.2,-36.6 -22.8,-56.2 -1.7,-1 -3.4,-2.1 -5,-3.2 -6.2,-3.9 -14,-7.4 -21.7,-9.4 -9.6,-2.5 -19.4,-4.7 -29.4,-4.7 -4.8,0 -9.7,0.3 -14.5,0.6 -5.4,0.4 -10.3,3 -13.8,7.1 -4.3,5.2 -8.4,10.5 -12.3,16 1.1,0.5 2.2,1.2 3.3,2 4.4,3.3 7.7,7.8 10.9,12.3 2.9,4.1 6.2,7.8 9.9,11.3 9.5,9 19.1,18.5 29.6,26.5 10.7,8 20.7,15 29.4,25.3 8.3,9.7 16.3,19.8 24.4,29.7 7.9,9.7 16,19.5 22.3,30.3 3.5,6.1 6.8,12.2 8.6,19 1.8,7 2.6,14.1 3.8,21.1 2.1,12.5 3.6,23.5 -2.1,35.4 -4.6,9.6 -11.4,18.4 -18.2,26.6 -7.4,9 -26.2,8.2 -29.3,-4.9 -3.5,-15.1 -4.5,-30.3 -5.7,-45.6 -1.1,-1.2 -2,-2.5 -2.9,-3.9 0,0 0,0 0,0 -2,0.7 -4.3,0.3 -6,-1.1 l -0.8,-0.7 c -0.3,-0.3 -0.6,-0.6 -0.9,-0.9 -1.5,0.3 -3.2,-0.1 -4.9,-1.6 -9.5,-8.3 -18.6,-17.4 -26.1,-27.7 -1.7,-1.8 -3.4,-3.6 -5.1,-5.4 -3,-3.3 -5.7,-6.7 -8.3,-10.1 -0.3,-0.4 -0.7,-0.8 -1,-1.1 -5.8,-4.8 -11.4,-9.7 -16.8,-14.9 -1.9,0.3 -4,-0.5 -5.4,-2.7 -2.3,-3.5 -4.7,-6.9 -7.2,-10.3 -0.1,-0.1 -0.2,-0.2 -0.3,-0.3 -2,-2 -3.9,-4 -5.8,-6 -1.6,-0.1 -3.2,-0.8 -4.5,-2.4 -7.9,-9.6 -17,-18 -26.2,-26.5 -0.2,-0.2 -0.4,-0.4 -0.6,-0.6 -9.7,31.4 -13.5,65.1 -10.3,99.8 9.3,99.8 74.3,181 161.5,215.6 1,-1.5 2.2,-2.7 3.6,-3.8 -0.1,-5.4 0.5,-10.8 3,-15.7 1.6,-3.1 3.8,-5.2 6.3,-6.3 2,-5.6 4.3,-10.9 8.4,-15.6 1.7,-1.9 3.8,-3.3 6,-4.1 2.2,-3.8 5,-7.2 8.4,-10.5 3.7,-3.4 8.9,-3.4 13.3,-1.5 1.6,-1.8 3.4,-3.3 5.4,-4.6 3.7,-2.3 7.7,-2.9 11.3,-2.1 0.2,-0.3 0.4,-0.5 0.6,-0.8 4,-5 11.5,-6.3 17.1,-3.5 1.3,-3.2 3.8,-5.9 7.7,-7.5 9.3,-3.8 20.8,-2.1 30.1,0.6 9.9,2.9 19.4,7.3 25,16 1.1,0.7 2.2,1.5 3.3,2.3 1.5,1.1 3.1,2.4 4.7,3.8 0.5,-0.3 1.1,-0.5 1.7,-0.8 7.3,-2.7 15,1.2 17.9,8.1 5.6,13 8.9,27.7 12.6,40 0.6,2.1 1.3,4.3 1.9,6.6 99,-38.4 166.5,-135.6 164.2,-245.4 -1.6,2 -3.5,3.6 -5.4,5 z M 477.5,830 c -6.9,9 -11.9,20 -15.2,30.8 -3.1,10.2 -5.5,22.3 -0.7,32.4 4.1,8.6 -9.7,13.7 -13.8,5.2 -6,-12.3 -3.8,-27.5 0,-40.2 3.9,-13.4 9.8,-26.5 18.3,-37.7 5.8,-7.5 17.2,1.9 11.4,9.5 z m 164.1,-61.3 c 0,0.1 -0.1,0.3 -0.1,0.4 0.5,6 -0.2,11.9 -3.5,17.6 -5.2,9.1 -15,16.1 -22.5,23.2 -7.5,7.1 -16,12.7 -26,15.6 -5.2,1.5 -10.3,3.3 -15.5,5 -2.3,1.1 -4.7,2 -7.3,2.7 -1.8,0.5 -3.6,0.8 -5.3,1 -2,0.5 -4,0.9 -6,1.2 -0.6,0.1 -1.3,0.1 -1.9,0.1 -0.2,0.1 -0.4,0.2 -0.7,0.3 -14.7,5.1 -31.2,-8.1 -37.3,-20.7 -5.4,-11.1 -4.4,-24.6 -2.4,-36.5 2,-12 6,-24.5 16,-32.2 6.3,-4.9 13.3,-2.9 17.8,2 0.3,-11.3 -0.6,-22.6 2,-33.7 2.1,-8.9 11.7,-14 19.7,-10.1 0.7,-2 1.6,-4 2.7,-6 1.7,-3.1 3.9,-5.2 6.4,-6.4 0.4,-1.4 0.8,-2.8 1.3,-4.2 1.9,-5 6.2,-7.5 10.9,-7.8 6.8,-4 16.8,-0.7 20.5,7 7.4,15.3 7.1,32.5 9.8,48.9 2,1 3.7,2.6 5,4.4 6.9,-3.5 16,-2.2 18.8,7 2.5,8.2 1.4,15.5 -2.4,21.2 z"
   id="path854" />
				</g>
			</g>
			<g
   id="g862">
				<path
   class="st1"
   d="m 475.6,979.3 c -5.6,-1.3 -7.7,-7.6 -4.8,-12.5 9.1,-15.5 48.3,-53.2 91.9,-51.1 43.4,2 60.3,25.1 68.2,50.1 1.6,5 -0.7,10.3 -5.8,11.3 -23.3,4.4 -91.3,15.4 -149.5,2.2 z"
   id="path860" />
			</g>
		</g>
	</g>
</g><g
   id="Bra_00000006687803802511535440000004701568448345433503_"
   transform="translate(-183.66635,-168.86393)">
	<path
   class="st3"
   d="m 673.8,715.8 c 0,0 -13.2,12.6 -17.3,26.8 -4.1,14.2 -13.3,48.8 -24.1,61.8 -10.8,13 -47.8,32.7 -76.7,35.2 -28.9,2.5 -45.6,-24.4 -49,-43.2 -3.4,-18.9 9.4,-59.7 9.4,-59.7 l -25.9,-2.8 c 0,0 0.4,1.8 -0.9,18.5 -1.4,16.6 -22.5,66.9 -23.6,67.3 0.7,0.1 7.1,1.5 7.7,4.8 0.7,3.7 -16.1,21.8 -18.1,42.3 -3.3,28.1 10.8,47.8 19.2,67 17.9,-15.6 40.7,-26.3 63.8,-29.3 32.1,-4.2 62.3,5.5 88.3,23.7 0.3,0.2 0.6,0.4 0.8,0.6 -3.7,-7.7 -12.8,-14.6 -16.2,-16.5 5.4,1 26.7,2 41.7,-0.1 17.3,-2.5 41.8,-24.6 45.4,-38.2 3.7,-13.6 -6.5,-46.6 -12.8,-75.9 -6.3,-29.3 12.5,-82 12.4,-82.8 -0.1,-0.6 -24.1,0.5 -24.1,0.5 z"
   id="path869" />
</g><g
   id="g874"
   transform="translate(-183.66635,-168.86393)">
		<path
   class="st4"
   d="m 1010.6,283.3 c -0.4,-1.3 -0.8,-2.6 -1.1,-4.1 -2.5,-10.7 -8.2,-17.5 -18.3,-19.6 -2.7,-8.5 -7.9,-14.1 -16.2,-16.3 -0.1,-1.3 -0.1,-2.6 -0.1,-4 -0.9,-44.8 -20.2,-46.4 -22.9,-46.5 -3.7,-0.1 -5.9,0.2 -8.3,2.5 -4,3.8 -2.6,7.6 -2.3,21.9 0.1,5.3 1,15.2 1.4,22.2 -2.3,-2.4 -6.9,-5.4 -13.8,-4.2 -10.7,1.9 -13.6,11.2 -14.5,19.8 -0.9,8.6 -5.4,21.6 -7.6,26.4 -2.2,4.8 -10.1,16.1 -8,30.9 2.1,14.9 25.5,18.5 39.3,24.4 13.8,5.9 28.3,10.5 28.4,25.9 v 0 0 c 0,0 -19.6,81.7 -42.4,135.5 -7.5,17.6 -16,32.9 -29.8,46 -46.8,44.3 -102.3,88.6 -148.4,116.2 -12.2,7.3 -27.5,20.5 -34.7,30.1 -6.2,8.4 -11.7,16.4 -11.7,16.4 -13.8,3.7 -42.3,4.8 -48.6,5.4 -16.2,-12.3 -21,-38.8 -21.5,-60 -0.5,-21.1 -1.2,-19.1 2.7,-22.3 21.5,-15.8 27.9,-37.2 27.9,-37.2 68,-11.9 85.9,-56.6 88.2,-80.2 -20.9,8.2 -34.6,8.6 -34.8,3.2 C 713,502 733.2,456 665.2,372.6 c 1.2,-1.3 15.3,-15.1 19.4,-36.1 14.9,-23.5 14.6,-25.7 27.9,-58.6 13.3,-32.9 40.7,-52.4 67.6,-52 0,0 -32.2,34.6 -14.3,69.9 0,0 2.6,-27.3 25.6,-33.3 31.9,-6.6 49,20.7 53.4,44.5 0.9,15.8 4.5,38.9 -28.9,65.4 0,0 5.6,-25.6 -2.9,-39.1 -0.6,-0.9 -1.8,-1.1 -2.6,-0.5 -0.6,0.4 -0.8,1.1 -0.7,1.8 4.5,20.4 -2.3,43.7 -25,63 35.5,3.4 55.5,-24.3 55.5,-24.3 0,0 3.2,2.2 4.2,8.2 0.8,5 -0.7,10.1 -3.8,14.1 -11.1,14.3 -27.3,23.3 -53.1,21.9 29.4,15.6 58,10.6 58,10.6 0,0 -16.2,23.3 -46.7,25.6 14,9.4 36.3,6.9 36.3,6.9 0,0 -15.7,38.8 -78.1,48.8 39.2,18.8 106.2,-13.6 129.5,-73.2 0.1,-0.2 -0.3,-0.4 -0.5,-0.2 -2.6,2.9 -11,9.6 -30.9,10 0,0 26.2,-24.4 28.1,-53 -15.2,19.6 -18.3,11.8 -18.3,11.8 7.6,-23.3 6.9,-33.3 2.1,-52.7 -2.6,5.5 -10,14.9 -13.6,19.3 -1,1.2 -2.8,1.1 -3.7,-0.2 l -0.8,-1.2 c -1.1,-1.7 -1.2,-3.8 -0.1,-5.5 5,-8.1 18.6,-33.7 13.9,-64.9 -4.9,-30.3 -29.8,-61.7 -67.3,-54.3 0,0 15.8,-25.5 18.6,-29.6 -53,-27 -99,22.2 -111.5,52.7 -0.3,0.5 -1,-61.7 -56.1,-83.3 -28.6,-9.6 -64.7,1.2 -77.9,23.3 -13.2,22.1 -9.4,41.3 -5.9,43.9 10.6,-39.1 32.7,-45.3 33,-46.7 0.4,-1.4 46.2,-23.5 74.8,21.3 28.6,44.8 8,93.8 -4.1,121.4 -9.2,15.8 -13.6,12.1 -12.5,5.8 11.8,-41.3 0.4,-53.8 -26.4,-65.7 23.4,11.5 22.8,39.5 22.8,39.5 0,0 -4.1,-15.8 -15.8,-25.9 -22.5,-19 -49,-9.3 -49,-9.3 13.3,0.1 26.5,10.8 32.6,31.1 6,20.4 -3.8,20 -6.9,17.6 -10.2,-26.6 -22.3,-29.9 -22.3,-29.9 0,0 12.7,15.2 15.1,27.8 -5.4,0.5 -8.2,-2.5 -8.2,-2.5 -8.5,-15 -13.2,-20.8 -20.5,-23.7 16.2,21.1 10.8,23.7 10.4,23.9 0.3,-0.4 -37.1,-42.5 -96.3,-35.7 20.8,-31.2 50.8,-32.5 75.4,-22.6 -21.9,-25.6 -63.6,-2.3 -63.6,-2.3 0,0 14.6,-27.4 56.9,-24.9 -26.7,-28.9 -80.4,6.8 -92.4,52.8 -28.7,2.3 -36.3,7.2 -36.3,7.2 -23.9,14.8 -30.8,33.5 -23.6,57.8 7.2,24.3 24.4,56.5 61.7,61.1 C 438.6,472.7 450,500 450,500 c 0,0 2.7,-10.1 8.5,-13.4 13.1,-5.2 14.4,5.1 21.3,11.9 -4.1,-10 -7.5,-18.8 -22.4,-16.6 6.1,-29.8 19.4,-50.3 19.5,-51 0.1,-0.8 13.7,1.2 30.5,-7.5 9.6,-5 18.4,-8.3 24.3,-10.2 1.6,-0.5 1.5,-2.9 -0.2,-3.3 -8.3,-1.8 -22.1,-6.2 -33.6,-17.2 -14.9,-14.2 -24.7,-27.6 -27.6,-32.6 1.8,4.3 6,15 13,28 -6.2,-3.1 -12.7,-13 -28.8,-22.6 3.2,3.6 5.3,9.2 12,16.6 9.1,10.1 19.9,20.6 30.2,28.5 -64.3,9.2 -84.4,-43.4 -72.3,-67.2 12.1,-23.8 35.5,-21.5 44.1,-17.8 45,18.8 76.1,79.2 75.4,74.4 -1.3,-9.1 -21.7,-50.3 -58.3,-75.8 45.8,-18.3 75.4,18.6 86,34.4 10.6,15.9 2.4,27.9 0,24.7 -10.4,-29.9 -16.5,-36.6 -39.9,-49.2 38.4,27.2 27.2,53.4 16.9,72.4 -0.7,1.4 0.2,3.1 1.7,3.2 14.6,1.6 21.6,-12.9 39,-18.7 18.7,-6.2 26.2,7.7 28.3,15.5 2.2,8.5 -3.2,15.4 -26.5,22.5 15.8,4.1 33.9,-7.5 36.7,-5.8 4.3,3.8 -4.7,8.1 -25.8,14.4 8.4,4.1 21.4,2.4 27,1.4 0.9,-0.2 1.3,1 0.6,1.5 -2.6,1.6 -8.1,3.7 -20.2,5.6 20.7,10.1 31.5,5.3 34.7,4.1 0.1,0 2,1.1 0.9,2.6 -2.6,3.4 -18.4,9.8 -35.1,6.7 8.3,7.4 25.5,9.8 34.5,10.9 0.8,0.1 0.7,1.2 0,1.2 -17.9,1.2 -26.9,0.3 -44.5,-12.6 13.7,30.2 47.6,27.2 47.6,28 0.1,0.7 0.9,1.8 -0.3,3.6 -1.2,1.6 -18.2,3.7 -23.8,7.6 -2.7,6.3 5.2,8.5 5.2,8.5 0,0 -7.9,16.9 -7.3,17.4 0.7,0.6 5.5,6.7 9.7,4.7 17.6,-33.5 46.8,-29.5 50.9,-7.6 4.7,53.1 -28.2,63.4 -56.5,56.6 9.1,58.3 -101.3,126.5 -114.6,122.2 -19.1,-6.5 -62.7,-95 -69.3,-115.3 -5.9,-18.1 -6.1,-31.7 0.1,-40.8 1.3,-1.9 3.7,-2.8 6,-2.5 8.9,1.4 17.1,-1.7 17.4,-1.1 0.3,0.7 -6,-21 2.2,-23.5 8.8,-2.3 17.9,20.2 19.8,25.1 0.2,0.5 0.8,0.8 1.3,0.6 l 1,-0.4 c 0.5,-0.2 0.7,-0.6 0.7,-1.1 -3.4,-32.6 -22.9,-36 -22.9,-36 0,0 -11.3,-0.8 -11,20.9 -5,-2.1 -5.2,-3.3 -9.9,-10.4 -0.2,9.2 9.2,15.3 9.2,15.3 l -0.4,4 c 0,0 -3.6,0.7 -9.6,-0.8 -3,-0.7 -6.1,0.1 -8.3,2.3 -9.8,10.1 -25.5,46.7 56.4,162.9 10.3,14.6 45.4,15 45.4,15 0,0 1.8,13.6 0.9,15.6 C 485.2,733.2 470.2,702.1 447,676 394.3,616.9 333.4,581.5 283.8,504.4 261.6,455.2 247.6,336 247.6,336 c 1.8,-15.2 16.8,-18.1 31.2,-22.3 14.4,-4.3 38.1,-5.1 41.9,-19.6 3.8,-14.5 -2.6,-26.6 -4.3,-31.7 -1.7,-5 -4.6,-18.5 -4.4,-27.2 0.1,-8.6 -1.6,-18.3 -12.1,-21.4 -6.7,-2 -11.6,0.4 -14.2,2.5 1.2,-7 3.2,-16.7 4,-21.9 2.1,-14.1 3.9,-17.7 0.4,-22 -2.1,-2.6 -4.2,-3.1 -7.9,-3.5 -2.7,-0.2 -22,-1 -28.3,43.4 -0.2,1.4 -0.4,2.7 -0.6,4 -8.5,1.2 -14.4,6.1 -18,14.3 -10.2,1 -16.8,7 -20.5,17.3 -0.5,1.4 -1.1,2.7 -1.6,3.9 -20.4,12.1 -23.3,41.3 -23.3,41.3 -12,72 -4.1,177.5 2.3,217.3 6.4,40 14,46.5 14,46.5 0,0 79.7,121.5 198.3,217.2 2.3,6.1 6.9,40.8 37.5,63.3 -21.4,20 -17.4,75.7 10.5,88.9 -1.9,15 -2.7,30.1 -2.2,44.9 0.1,4.4 8.8,8 12.5,-1 22,-54.1 92.6,-61.2 93.6,-64.5 2.8,-9.8 -85.3,17.7 -103,-16.9 -14,-27.2 3.4,-52.2 20.5,-76.1 16.8,-23.5 21.3,-69 21.6,-71.7 0.1,-0.1 0.1,-0.1 0.1,-0.1 1.3,-0.1 13,-1.5 15.1,-1.2 0.2,0 0.3,0.2 0.3,0.4 -16.9,53.1 -6.4,98 35.5,104 42,6 95.9,-29.3 105.3,-58.3 9.4,-28.9 14.6,-56.6 24.4,-61.7 0,0 0,0 0.1,0 5.8,-2 10.9,-2.1 12.1,-2.1 0.2,0 0.3,0.1 0.2,0.3 -14.2,65.9 -6.2,96.8 -3.1,116.8 3.1,19.6 1.3,26.6 -4.9,39.1 -6.4,13 -18,22.6 -32.1,26.2 -13.8,3.5 -37.5,5.8 -61.8,-1.3 -1,-0.3 -1.8,0.9 -1.1,1.7 16.1,17.7 43.8,18 51.5,65.9 0.7,4.2 5,5.3 9.1,4 3.4,-1 50.1,-7.1 67.3,-73.3 7.5,-34.2 0.5,-48.1 -6.3,-68.9 22.1,-7.2 58.9,-32.1 64.7,-61.4 121.1,-78.8 209.7,-184.6 209.7,-184.6 0,0 13.2,-17 19.4,-44.5 8.9,-39.5 31.5,-143.5 28,-216.5 -0.2,0.6 -0.8,-31.2 -18.4,-42.2 z M 677.2,486 c -5.8,-21 -23.1,-93.2 -79.2,-113.6 -2.4,-0.9 -4.1,-21.2 1.8,-20 33.1,7.1 80.6,40.4 99.5,115.4 0.2,0.7 5.8,21.4 -13.6,24 -3.9,0.6 -7.5,-2.1 -8.5,-5.8 z M 245.5,222.7 c 3.1,-2.2 5.5,-2.9 7.2,-3.3 -2.9,15 -7.4,19.7 -18.4,24.3 3.8,-7.6 5,-16.7 11.2,-21 z m -19.2,14.4 c 3.6,-2.5 6.1,-3.1 7.8,-3.5 0,0.1 -0.1,0.1 -0.1,0.2 -2.3,6.3 -4.9,10.1 -7.3,12.8 -0.9,0.3 -1.8,0.7 -2.7,1 -1.6,0.6 -3.3,1.2 -5.1,1.9 -0.1,0 -0.2,0.1 -0.3,0.1 1.8,-5 3.7,-9.7 7.7,-12.5 z m 221,588.4 c -12.7,-14.1 -16,-24.1 -11.3,-39.7 11.7,-9.9 14.7,-17.7 14.8,-19.2 0.6,-6.6 -20.1,9.7 -33.5,-4.1 C 372,724.8 270.2,631.6 223.5,551.9 c -5.6,-9.6 -10.1,-21.2 -12.1,-32.1 -6.3,-35.7 -18.1,-123.7 -8.5,-228 1.1,-9.8 3.9,-27.7 19.5,-33 1.7,-0.6 3.4,-1.2 5,-1.8 23.6,-8.6 27.5,-13.2 33,-45.9 4.3,-25.7 10.5,-33.8 14.6,-36.2 4.5,-2.7 10,-1.9 12.2,0.2 3,2.8 0.8,9 -1.2,20.7 -1.3,7.7 -3.9,18.5 -5.2,24.9 -1.9,9.7 -3.5,16.2 -4.4,22 -2.6,16.1 -4.6,22.2 16.6,29.8 3.9,1.4 5.2,1.6 5.3,0.5 0.2,-1.4 -0.8,-1.2 -4.6,-3 -9.3,-4.6 -15,-6.8 -14,-16.3 0.8,-7.7 4,-23.5 5.3,-32.1 2.3,-1.2 6.1,-2.7 9,-2.6 4.4,0.3 8,1.8 10.7,9.5 2.8,7.6 -2.2,17.7 1.5,34 3.6,16.4 9.7,28.8 -19.3,32.5 -28.8,3.7 -58.2,10 -58.1,26.2 -0.6,-0.4 10,103.1 29.7,161 6.6,19.2 8.9,38.9 9.7,48.7 0.1,1.2 1.8,1.4 2.2,0.2 1,-3.3 2.1,-7.1 2.8,-8.9 76.1,102.5 137.3,124.4 189.6,202.6 22.8,34.5 11.9,69.7 -15.5,100.7 z m 189.5,-61.8 c 3.5,8.2 3.2,14.8 -10.4,32.3 -13.6,17.5 -46.9,37.6 -77.6,32.5 -32,-5.4 -31.3,-44.6 -30.4,-52 0.9,-7.4 5.7,-20.8 10.5,-24.6 3.7,-0.3 7.4,-0.4 7.4,-0.4 0,0 -11,10.1 -9.5,35 14.8,1.4 24.6,-12.8 25.7,-21.4 1.1,-8.6 1,-41.2 1.3,-40.3 0,0 38.8,4.8 44.6,-40.1 0,-0.2 0.4,-0.3 0.4,0 3.3,20.9 -3,61.4 -9.2,78.9 -0.2,0.5 0.4,0.9 0.8,0.6 8.9,-6.7 16.6,-42.6 16.6,-42.6 0,0 0.7,20.9 12.6,27.4 11.9,6.5 22.4,-0.5 22.1,0.1 -0.4,0.5 -8.4,6.5 -4.9,14.6 z m 362.5,-497 c 3.6,3.2 5,8.2 6.2,13.4 -0.1,-0.1 -0.2,-0.1 -0.3,-0.2 -1.7,-0.9 -3.3,-1.7 -4.8,-2.4 -0.9,-0.5 -1.8,-0.9 -2.6,-1.3 -2.1,-2.9 -4.3,-7 -5.8,-13.6 0,-0.1 0,-0.2 -0.1,-0.2 1.7,0.6 4.2,1.4 7.4,4.3 z M 975.1,246 c 1.6,0.6 3.9,1.6 6.7,4.2 5.6,5.1 5.8,14.2 8.6,22.1 -10.2,-5.9 -14.2,-11.1 -15.3,-26.3 z m 1.1,308.3 c -2.5,8.2 -6.7,15.7 -12.2,22.3 -16.4,19.4 -56.6,64.5 -120.3,118.7 -25.8,21.9 -48.7,37.5 -70.7,52.6 -1.5,1 -3.5,2.3 -5.4,3.5 -4.1,2.6 -9,3.7 -13.8,3 -3.9,-0.5 -8.5,-1.9 -12.1,-5 -1.6,-1.4 -4,0.2 -3.3,2.2 3.6,11 19.7,13.8 13.8,28.6 -9.9,24.6 -30.9,34.3 -47.8,44.2 -4.7,-14.8 -7.3,-28.1 -5.8,-58 1.2,-28.1 12.8,-52 26.6,-65.2 0,0 12.9,-16.2 69,-51.4 55.7,-39.5 102.5,-87.8 125,-105.5 0.5,1.8 1.2,5.7 1.7,9.2 0.2,1.2 1.8,1.2 2.1,0.1 4.6,-16.5 2.6,-23.6 13.1,-45.2 26.8,-55 51.5,-158.8 50.9,-158.5 v 0 C 989.1,333.8 960.7,324 932.4,317 904,309.9 911.5,298.3 917,282.4 c 5.6,-15.8 1.9,-26.4 5.5,-33.6 3.6,-7.3 7.4,-8.4 11.8,-8.1 2.8,0.1 6.4,2.2 8.6,3.6 0.3,8.7 1.6,24.7 1.5,32.5 -0.1,9.6 0,11.3 -7.2,13.5 -4,1.2 -4.9,1 -4.9,2.5 0,1.1 1.2,0.6 5.3,0.1 16.2,-1.9 12.1,-10.4 11.4,-26.6 -0.2,-5.9 -1.1,-12.5 -1.8,-22.4 -0.5,-6.6 -1.8,-17.5 -2.2,-25.4 -0.6,-11.9 -2.1,-18.3 1.2,-20.7 2.4,-1.8 8,-1.9 12.1,1.3 3.8,2.9 8.9,11.7 10.2,37.7 1.6,33.2 4.9,38.2 27.3,49.5 1.5,0.8 3.3,1.2 4.7,2.4 43.7,35.3 -9.1,216.9 -24.3,265.6 z"
   id="path872"
   style="fill:#ffffff" />
	</g><g
   id="Face"
   transform="translate(-183.66635,-168.86393)">
	<g
   id="g897">
		<g
   id="g891">
			<g
   id="g885">
				<g
   id="g879">
					<path
   class="st4"
   d="m 547.5,581.6 c 0.8,0.2 1.1,0.5 1.2,0.6 0.5,0.8 0.7,2.3 0.3,3.7 -0.1,0.2 -0.1,0.5 -0.2,1 -11.3,45 -26.9,74.8 -41,77.8 -0.2,0 -0.4,0.1 -0.6,0.1 -1.8,0 -4.9,-1.5 -9.8,-8.5 -4.4,-6.3 -8.8,-15.3 -13,-24 -9.2,-19.2 -12.9,-29.7 -12.9,-29.8 v -0.1 l -0.1,-0.2 c -0.3,-0.7 -0.9,-2.9 0.7,-4 13.9,-8.9 39.9,-14.7 75.4,-16.6 m 0.3,-5 c -54.1,2.7 -72.8,13.9 -78.5,17.6 -5.3,3.5 -2.6,10.1 -2.6,10.1 0,0 3.6,10.6 13.2,30.3 9,18.7 17.6,35.3 27.3,35.3 0.5,0 1.1,-0.1 1.6,-0.2 26.9,-5.8 43.8,-77.7 45.1,-82.5 1.1,-4 0.1,-9.9 -6.1,-10.6 z"
   id="path877"
   style="fill:#ffffff" />
				</g>
				<path
   class="st4"
   d="m 480.6,613.9 c -0.4,0.4 -6.2,-13.3 1.9,-17.1 18.7,-8.7 48.7,-10 48.7,-10 0,0 1.5,4.9 0.7,8.1 -0.3,1.5 -1.6,2.6 -3.1,2.8 -21.5,2.7 -38.3,4.3 -48.2,16.2 z"
   id="path881"
   style="fill:#ffffff" />
				<path
   class="st4"
   d="m 507.9,661.6 c -0.4,0 -7.3,-1.2 -7.3,-7.5 -0.1,-5 11.5,-19.8 28.5,-20 0.7,1.4 -11.5,27 -21.2,27.5 z"
   id="path883"
   style="fill:#ffffff" />
			</g>
			<path
   class="st4"
   d="m 524.4,535.3 v 0 c 1.3,0 2.7,-0.9 2.6,-2.2 -0.6,-18.8 5,-33.8 17.6,-34.7 13.4,-0.9 19,20.7 18.7,21.2 -0.3,0.4 16.9,-3.9 24.1,-12.2 -8.3,3.5 -16.1,4.4 -15.9,3.2 0.2,-1.2 13.5,-4 14,-15.9 -12.5,11.6 -17.7,9.4 -17.6,8.9 0.1,-0.6 6.3,-6.3 8.4,-14.6 -2.6,8.4 -11.2,10.1 -11.2,10.1 0,0 1,-6.9 -1.3,-10.1 0,0 -2.1,6.7 -5.1,6.5 -2.4,-1.4 -7.1,-8.4 -15.6,-7.1 -26.7,3.8 -23.1,36.1 -21.4,44.8 0.3,1.2 1.4,2.1 2.7,2.1 z"
   id="path887"
   style="fill:#ffffff" />
			<path
   class="st4"
   d="m 519.6,487.4 c 2.4,-5 8.5,-13.4 22.4,-17.6 14.1,-4.3 23.4,1.2 27.4,4.4 0.5,0.4 1.1,-0.2 0.8,-0.7 -3.2,-5.6 -15.9,-18.8 -35,-12.8 -17.2,5.5 -16.8,18.3 -17.2,26.3 -0.1,0.9 1.2,1.2 1.6,0.4 z"
   id="path889"
   style="fill:#ffffff" />
		</g>
		<path
   class="st4"
   d="m 481.5,551.5 c -2.1,-5.7 -6.7,-2.3 -6.7,-2.3 0,0 -4.3,4.7 -5.4,7.5 -1.1,2.6 -1.4,7.5 6,16.8 0.8,1 2.1,1.6 3.4,1.3 2.4,-0.5 3.9,-1.3 4.9,-2.1 1.2,-1 1.1,-2.9 -0.2,-3.9 -2,-1.5 -4.8,-4 -5.6,-6.5 -2.4,-9.2 5.7,-5 3.6,-10.8 z"
   id="path893"
   style="fill:#ffffff" />
		<path
   class="st4"
   d="m 656.1,561.2 c 4,-3 8.4,-7.2 8.9,-13.9 0.7,-12.2 -6.4,-19.1 -12.9,-20.3 -6.4,-1.2 -12,6.6 -8.4,10.8 3.6,4.2 8.2,-0.4 11.1,1.3 5.3,4.6 2.4,14.1 -1.6,20.4 -1.2,1.9 1.2,3.1 2.9,1.7 z"
   id="path895"
   style="fill:#ffffff" />
	</g>
	<path
   class="st3"
   d="m 677.2,486 c -5.8,-21 -23.1,-93.2 -79.2,-113.6 -2.4,-0.9 -4.1,-21.2 1.8,-20 33.1,7.1 80.6,40.4 99.5,115.4 0.2,0.7 5.8,21.4 -13.6,24 -3.9,0.6 -7.5,-2.1 -8.5,-5.8 z"
   id="path899" />
</g>
<g
   id="Text"
   class="st5"
   transform="translate(-183.66635,-168.86393)">
	<g
   class="st6"
   id="g948">
		<g
   id="g946">
			<path
   class="st1"
   d="m 254.4,829.1 -44,14.5 -4.4,-13.5 44,-14.5 z"
   id="path902" />
			<path
   class="st1"
   d="m 229.6,890.2 -4.6,-10.6 13.7,-19.8 c 1.8,-2.5 4,-5.3 6.8,-8.3 -2.4,1.9 -4.6,3.2 -6.5,4.1 l -20.6,9 -4.6,-10.6 42.5,-18.5 5.4,12.3 -11.2,16.7 c -2.2,3.3 -4.3,6 -6.2,8 3.3,-2.2 6.9,-4.2 10.7,-5.9 l 12.6,-5.5 4.6,10.6 z"
   id="path904" />
			<path
   class="st1"
   d="m 263.2,913.6 5.9,11.6 c -5.2,2.4 -10,2.8 -14.5,1.2 -4.4,-1.6 -8,-4.6 -10.6,-9.1 -3.2,-5.4 -4,-10.9 -2.4,-16.3 1.6,-5.4 5.6,-10 11.9,-13.8 6.3,-3.7 12.2,-5.1 17.9,-4.2 5.7,0.9 10.2,4.2 13.6,9.8 3.1,5.3 4,10.2 2.8,14.8 -1.3,4.6 -4.2,8.5 -8.8,11.7 l -7.4,-11.1 c 2.7,-1.6 4.3,-3.2 4.9,-4.9 0.6,-1.7 0.5,-3.3 -0.3,-4.7 -2.3,-3.9 -7.3,-3.5 -15.1,1.1 -4.3,2.6 -7,4.8 -8,6.7 -1,1.9 -0.9,3.8 0.1,5.6 2.1,3.3 5.3,3.8 10,1.6 z"
   id="path906" />
			<path
   class="st1"
   d="m 289.6,961.9 -8.8,6.7 -21.2,-27.7 36.8,-28.1 21.2,27.7 -8.5,6.5 -12.7,-16.6 -5.3,4.1 10.3,13.4 -8.2,6.2 -10.3,-13.4 -6,4.6 z"
   id="path908" />
			<path
   class="st1"
   d="m 315.3,1003.9 -8.2,-8.1 5.4,-23.5 c 0.7,-3 1.8,-6.4 3.2,-10.3 -1.6,2.6 -3.1,4.7 -4.6,6.2 l -15.8,15.9 -8.2,-8.1 32.6,-32.9 9.6,9.5 -4.3,19.7 c -0.8,3.9 -1.8,7.2 -2.8,9.8 2.3,-3.3 4.9,-6.5 7.8,-9.4 l 9.6,-9.7 8.2,8.1 z"
   id="path910" />
			<path
   class="st1"
   d="m 361.2,994.7 -21.2,28.2 -10.8,-8.1 21.2,-28.2 -7.7,-5.8 6.7,-8.9 26.1,19.6 -6.7,8.9 z"
   id="path912" />
			<path
   class="st1"
   d="m 389.9,1000 -24.1,39.6 -12.1,-7.4 24.1,-39.6 z"
   id="path914" />
			<path
   class="st1"
   d="m 431.5,1020.2 -32.4,36.1 -13.2,-6 5.7,-48.4 13.6,6.3 -3.9,26 c -0.2,1.6 -0.4,3.1 -0.6,4.6 l 20.2,-23.4 z"
   id="path916" />
			<path
   class="st1"
   d="m 456.9,1064.1 -3.1,10.6 -33.4,-9.9 13.1,-44.4 33.4,9.9 -3,10.3 -20.1,-5.9 -1.9,6.4 16.2,4.8 -2.9,9.9 -16.2,-4.8 -2.1,7.3 z"
   id="path918" />
			<path
   class="st1"
   d="m 504.4,1047.2 -4.4,35 -13.4,-1.7 4.4,-35 -9.5,-1.2 1.4,-11 32.4,4.1 -1.4,11 z"
   id="path920" />
			<path
   class="st1"
   d="m 536.7,1085.1 c -6.5,-0.1 -11.8,-2.4 -15.8,-6.8 -4,-4.4 -6,-10.2 -5.8,-17.5 0.1,-6.9 2.2,-12.6 6.2,-17 4,-4.4 9.5,-6.6 16.5,-6.5 6.5,0.1 11.7,2.4 15.6,6.7 4,4.3 5.9,10.1 5.8,17.2 -0.1,7.4 -2.3,13.2 -6.5,17.6 -4.2,4.3 -9.5,6.4 -16,6.3 z m 0.1,-10.5 c 2.4,0 4.1,-1 5.2,-3 1.1,-2.1 1.7,-5.9 1.8,-11.5 0.2,-8.1 -1.9,-12.1 -6.2,-12.2 -4.7,-0.1 -7.1,4.5 -7.3,13.6 -0.1,8.7 2.1,13 6.5,13.1 z"
   id="path922" />
			<path
   class="st1"
   d="m 609.3,1080.9 -15.5,1.3 -9.4,-16.8 -4.2,7.2 0.9,10.7 -13.4,1.1 -3.8,-46.2 13.4,-1.1 1.6,19.1 11.2,-20.2 12.7,-1.1 -10.3,17.9 z"
   id="path924" />
			<path
   class="st1"
   d="m 648.3,1062.3 2.1,10.9 -34.3,6.5 -8.6,-45.5 34.3,-6.5 2,10.5 -20.6,3.9 1.2,6.6 16.6,-3.1 1.9,10.1 -16.6,3.1 1.4,7.4 z"
   id="path926" />
			<path
   class="st1"
   d="m 697.1,1059 -11,3.5 -18.3,-15.6 c -2.4,-2 -4.9,-4.5 -7.6,-7.6 1.6,2.6 2.8,4.9 3.4,6.9 l 6.8,21.4 -11,3.5 -14.1,-44.1 12.8,-4.1 15.5,12.9 c 3.1,2.6 5.5,4.9 7.4,7 -1.9,-3.6 -3.5,-7.3 -4.7,-11.2 l -4.2,-13.1 11,-3.5 z"
   id="path928" />
			<path
   class="st1"
   d="m 739.5,1018.3 11.7,-5.7 c 2.3,5.2 2.6,10.1 1,14.5 -1.6,4.4 -4.7,7.9 -9.3,10.5 -5.5,3.1 -10.9,3.8 -16.3,2.1 -5.4,-1.7 -9.9,-5.8 -13.6,-12.1 -3.6,-6.3 -4.9,-12.3 -3.9,-18 1,-5.7 4.3,-10.2 10,-13.4 5.3,-3 10.3,-3.9 14.8,-2.6 4.5,1.3 8.4,4.3 11.5,9 l -11.2,7.2 c -1.5,-2.7 -3.2,-4.4 -4.9,-5 -1.7,-0.6 -3.3,-0.5 -4.7,0.3 -3.9,2.2 -3.6,7.2 0.8,15.1 2.5,4.4 4.7,7.1 6.6,8.1 1.9,1 3.8,1 5.6,-0.1 3.5,-2 4.1,-5.3 1.9,-9.9 z"
   id="path930" />
			<path
   class="st1"
   d="m 783.9,1009.5 c -5.1,4.1 -10.6,5.8 -16.5,5 -5.9,-0.8 -11.1,-4 -15.7,-9.6 -4.4,-5.4 -6.4,-11.1 -6.2,-17 0.2,-6 3,-11.2 8.5,-15.5 5,-4.1 10.4,-5.7 16.3,-4.9 5.8,0.8 11,3.9 15.5,9.4 4.6,5.7 6.7,11.6 6.3,17.6 -0.4,5.9 -3.2,10.9 -8.2,15 z m -6.7,-8.2 c 1.9,-1.5 2.5,-3.4 2.1,-5.7 -0.5,-2.3 -2.5,-5.6 -6,-9.9 -5.1,-6.3 -9.3,-8 -12.6,-5.3 -3.6,2.9 -2.6,8 3.2,15.1 5.4,6.7 9.8,8.7 13.3,5.8 z"
   id="path932" />
			<path
   class="st1"
   d="m 806.4,970.7 8.9,8.6 -9,9.3 -8.9,-8.6 z"
   id="path934" />
			<path
   class="st1"
   d="m 819.8,955.4 8.7,7.4 5,14 -3.4,4.1 -5.6,-11.8 -3.5,4.2 -9.4,-8 z"
   id="path936" />
			<path
   class="st1"
   d="m 844.8,922.5 9.3,6.5 -18.5,26.7 -38.1,-26.4 8.1,-11.7 28.7,19.9 z"
   id="path938" />
			<path
   class="st1"
   d="m 834.7,891.1 30.9,17 -6.5,11.8 -30.9,-17 -4.6,8.4 -9.7,-5.4 15.8,-28.6 9.7,5.4 z"
   id="path940" />
			<path
   class="st1"
   d="m 873.7,892.7 -43.1,-17.1 6.6,-16.7 c 2.9,-7.2 7.2,-11.8 12.9,-13.7 5.7,-1.9 11.4,-1.7 17,0.5 6.4,2.6 10.9,6.6 13.4,12 2.5,5.5 2.5,11.3 0.1,17.4 z m -4.7,-17.2 1.4,-3.4 c 0.9,-2.2 0.5,-4.5 -1,-6.8 -1.5,-2.3 -4.1,-4.2 -7.8,-5.7 -3.1,-1.2 -6.1,-1.6 -8.9,-1.2 -2.8,0.4 -4.7,1.9 -5.7,4.4 l -1.4,3.4 z"
   id="path942" />
			<path
   class="st1"
   d="m 882.2,830.5 11.9,3.3 -3.4,12.4 -11.9,-3.3 z"
   id="path944" />
		</g>
	</g>
</g>
</svg>
