<?xml version="1.0" encoding="UTF-8" standalone="no"?>
<svg
   viewBox="0 0 818.19323 811.95529"
   version="1.1"
   id="svg907"
   sodipodi:docname="KA_logo_Simple_selected_No_Text_Black_BG-01.svg"
   width="818.19324"
   height="811.95532"
   inkscape:version="1.1.2 (b8e25be8, 2022-02-05)"
   xmlns:inkscape="http://www.inkscape.org/namespaces/inkscape"
   xmlns:sodipodi="http://sodipodi.sourceforge.net/DTD/sodipodi-0.dtd"
   xmlns="http://www.w3.org/2000/svg"
   xmlns:svg="http://www.w3.org/2000/svg">
  <defs
     id="defs911" />
  <sodipodi:namedview
     id="namedview909"
     pagecolor="#ffffff"
     bordercolor="#666666"
     borderopacity="1.0"
     inkscape:pageshadow="2"
     inkscape:pageopacity="0.0"
     inkscape:pagecheckerboard="0"
     showgrid="false"
     inkscape:zoom="0.68264636"
     inkscape:cx="255.62284"
     inkscape:cy="466.56661"
     inkscape:window-width="1312"
     inkscape:window-height="905"
     inkscape:window-x="3217"
     inkscape:window-y="170"
     inkscape:window-maximized="0"
     inkscape:current-layer="svg907" />
  <g
     id="uuid-769eeebe-3988-4264-8ccb-df01f26f0699"
     transform="translate(-199.29487,-173.09441)">
    <path
       d="m 447.31184,825.50432 c -12.7153,-14.0738 -15.99266,-24.13834 -11.29347,-39.74672 11.72574,-9.90182 14.68293,-17.70207 14.8079,-19.18329 0.55424,-6.56917 -20.13135,9.71689 -33.50814,-4.14504 -45.29673,-37.57965 -147.14261,-130.82736 -193.84809,-210.5769 -5.61421,-9.58625 -10.10981,-21.17646 -12.05483,-32.11406 -6.3427,-35.66745 -18.07652,-123.65852 -8.49575,-227.98748 1.11232,-9.83169 3.9245,-27.70394 19.46161,-33.0102 1.74217,-0.595 3.38059,-1.24632 4.96926,-1.82596 23.56697,-8.60323 27.45304,-13.185 32.95536,-45.92573 4.31548,-25.67759 10.4846,-33.81555 14.55366,-36.20322 4.52416,-2.6548 10.0153,-1.86608 12.20458,0.17944 2.99006,2.7937 0.80353,8.98376 -1.22278,20.68081 -1.3406,7.73882 -3.91195,18.46264 -5.16109,24.94534 -1.87685,9.74117 -3.47961,16.21001 -4.41805,22.03687 -2.59155,16.0904 -4.58174,22.23841 16.57332,29.81551 3.93741,1.40758 5.17127,1.58629 5.29795,0.48566 0.1628,-1.41532 -0.79064,-1.15495 -4.5848,-3.01869 -9.31286,-4.57446 -14.97261,-6.78448 -13.97019,-16.28603 0.81651,-7.73804 3.97838,-23.4669 5.29601,-32.1067 2.34592,-1.15765 6.12589,-2.74073 8.9607,-2.55093 4.41157,0.29615 7.98546,1.82644 10.73595,9.46134 2.75056,7.63481 -2.1822,17.65188 1.46643,34.03926 3.64873,16.38762 9.65678,28.84966 -19.34669,32.52181 -28.84912,3.65271 -58.23532,9.99672 -58.06833,26.23201 -0.66553,-0.46295 9.79517,102.42914 29.73987,161.01172 6.55298,19.24756 8.87763,38.85926 9.66692,48.73554 0.0981,1.22679 1.82558,1.38837 2.16561,0.20556 0.96119,-3.34424 2.09254,-7.11341 2.79198,-8.88154 76.07324,102.46219 137.34957,124.39294 189.61741,202.63296 22.99654,34.42359 12.13035,69.62125 -15.29231,100.57864 z"
       fill="#ffffff"
       id="path824" />
    <path
       d="m 976.22815,554.32406 c -2.54506,8.17749 -6.6932,15.74676 -12.21176,22.29609 -16.35636,19.41151 -56.628,64.4849 -120.33457,118.68497 -25.79757,21.94798 -48.72893,37.48695 -70.68156,52.62313 -1.4926,1.02282 -3.51118,2.31906 -5.37157,3.49161 -4.11685,2.59441 -9.00369,3.69261 -13.82669,3.04601 -3.92963,-0.52675 -8.48204,-1.85999 -12.12043,-4.95578 -1.60624,-1.36673 -3.95144,0.1863 -3.30233,2.19295 3.56171,11.01068 19.71373,13.81056 13.7521,28.57196 -9.93838,24.60802 -30.87255,34.2683 -47.82028,44.17223 -4.68593,-14.82627 -7.33607,-28.10054 -5.75878,-58.00851 1.21121,-28.13136 12.75418,-52.00341 26.59528,-65.20569 0,0 12.86967,-16.18036 68.97344,-51.37574 55.68497,-39.5167 102.48367,-87.81311 124.99974,-105.47539 0.48657,1.84431 1.16623,5.73853 1.72569,9.18039 0.18847,1.15924 1.82667,1.24224 2.14444,0.11157 4.64414,-16.52678 2.63388,-23.60943 13.12934,-45.15106 26.81356,-55.03434 51.54757,-158.83535 50.86565,-158.54301 h 8e-5 c 2.08852,-16.10114 -26.33956,-25.88072 -54.55306,-32.92439 -28.36442,-7.08123 -20.92277,-18.744 -15.35903,-34.58413 5.56383,-15.84006 1.852,-26.371 5.48748,-33.62637 3.63531,-7.25543 7.36531,-8.35159 11.78089,-8.12286 2.83736,0.14693 6.40317,2.16676 8.59548,3.594 0.28522,8.73523 1.56202,24.72759 1.4564,32.50806 -0.12994,9.55327 0.0465,11.293 -7.22443,13.52195 -4.04158,1.23902 -4.90407,1.02981 -4.91001,2.45437 -0.005,1.10788 1.16446,0.6262 5.31827,0.14517 16.24451,-1.88071 12.07907,-10.36382 11.41134,-26.64778 -0.2417,-5.89706 -1.06705,-12.51018 -1.77708,-22.40527 -0.47251,-6.5848 -1.7558,-17.53788 -2.17039,-25.38107 -0.62684,-11.85493 -2.06487,-18.26006 1.23503,-20.67991 2.41608,-1.77157 7.96192,-1.90486 12.13991,1.26719 3.75763,2.85274 8.9196,11.66375 10.1637,37.67221 1.58604,33.16176 4.90211,38.1717 27.28441,49.50515 1.50885,0.76376 3.28689,1.24348 4.71795,2.40152 43.6225,35.29996 -9.1883,216.91515 -24.35467,265.64645 z"
       fill="#ffffff"
       id="path826" />
    <path
       d="m 245.53518,222.67915 c 3.1459,-2.20991 5.48464,-2.92456 7.17903,-3.33454 -2.8869,15.01919 -7.43524,19.67986 -18.35037,24.30803 3.75836,-7.55388 4.96121,-16.6116 11.17135,-20.9735 z"
       fill="#ffffff"
       id="path828" />
    <path
       d="m 226.25153,237.10823 c 3.55841,-2.49954 6.08446,-3.08822 7.81049,-3.48383 -0.0277,0.0756 -0.059,0.14564 -0.0863,0.22185 -2.27856,6.33044 -4.9026,10.1304 -7.33978,12.80247 -0.88885,0.32688 -1.79752,0.6592 -2.74874,1.0065 -1.61703,0.59078 -3.30128,1.2061 -5.05685,1.85895 -0.11177,0.0416 -0.21689,0.0898 -0.32777,0.13212 1.85325,-5.0189 3.77173,-9.74423 7.74898,-12.53807 z"
       fill="#ffffff"
       id="path830" />
    <path
       d="m 999.3016,266.73931 c 3.6184,3.24506 4.9637,8.16418 6.2096,13.36738 -0.1051,-0.0551 -0.2038,-0.11546 -0.31,-0.16985 -1.6658,-0.85621 -3.2653,-1.66691 -4.801,-2.4449 -0.90341,-0.45736 -1.76632,-0.8948 -2.61024,-1.32478 -2.10354,-2.94208 -4.25902,-7.02614 -5.77179,-13.58137 -0.0183,-0.0788 -0.041,-0.1525 -0.0596,-0.23089 1.66713,0.59711 4.10569,1.48085 7.34299,4.38441 z"
       fill="#ffffff"
       id="path832" />
    <path
       d="m 975.1289,245.96648 c 1.63401,0.60812 3.87158,1.59436 6.73363,4.16142 5.64979,5.06672 5.77148,14.20332 8.6088,22.1489 -10.29017,-5.88787 -14.25462,-11.05468 -15.34243,-26.31032 z"
       fill="#ffffff"
       id="path834" />
    <path
       d="m 636.77187,763.73542 c 3.50662,8.16053 3.24699,14.75364 -10.38278,32.28308 -13.62985,17.52945 -46.86713,37.63733 -77.63335,32.48364 -31.99908,-5.36026 -31.33846,-44.61364 -30.43857,-52.04036 0.89999,-7.42656 5.70486,-20.80015 10.45243,-24.60868 3.70882,-0.29912 7.44176,-0.41388 7.44176,-0.41388 0,0 -11.04761,10.06956 -9.46758,34.97401 14.80492,1.43131 24.55986,-12.77889 25.68333,-21.35936 1.12332,-8.5803 0.97161,-41.16819 1.27671,-40.27119 0,0 38.80654,4.82047 44.61092,-40.05165 0.0309,-0.23858 0.37239,-0.26605 0.40939,-0.0283 3.26051,20.94366 -2.97886,61.38914 -9.24959,78.85396 -0.17449,0.48634 0.38321,0.93514 0.79576,0.6241 8.88698,-6.70021 16.60692,-42.62465 16.60692,-42.62465 0,0 0.67995,20.89974 12.58863,27.39586 11.90877,6.4962 22.42197,-0.50481 22.12594,0.0962 -0.29587,0.60104 -8.32645,6.52681 -4.81992,14.68719 z"
       fill="#ffffff"
       id="path836" />
    <path
       d="m 450.6135,841.97546 c 1.15999,-1.72925 11.02776,-23.1653 15.37047,-27.68098 4.34271,-4.51568 13.89693,-2.65031 13.10372,8.53988 -0.79321,11.19019 -15.81161,26.79755 -15.51713,40.04908 0.29448,13.25153 4.32016,37.69325 -1.96262,42.40491 -6.28278,4.71166 -15.53189,-11.75023 -17.38586,-21.48248 -1.85397,-9.73225 -3.87932,-26.51929 6.39142,-41.83041 z"
       fill="#ffffff"
       id="path838" />
    <path
       d="m 663.22699,941.80368 c 0,32.67647 -54.18405,40.04908 -119.2638,42.99387 -65.63778,2.97004 -124.56442,-20.62414 -124.56442,-53.30061 0,-32.67647 58.27052,-56.78595 123.97546,-56.78595 65.70494,0 119.85276,34.41623 119.85276,67.0927 z"
       fill="#ffffff"
       id="path840" />
    <path
       d="m 453.99737,474.40782 c 3.25293,-9.52213 8.81114,-18.1327 12.00381,-27.67521 3.19267,-9.5425 3.60244,-20.97204 -2.74078,-28.78332 -4.09406,-5.04158 -10.29654,-7.7616 -15.84507,-11.13689 -17.73313,-10.78744 -30.01348,-30.08964 -32.27075,-50.72305 -0.704,-6.43517 -0.42943,-13.19544 2.43046,-19.00302 6.6623,-13.52918 24.1736,-17.07234 39.2499,-17.43336 2.56039,-0.0613 5.23462,-0.10583 7.49575,-1.30859 3.67828,-1.95658 5.21257,-6.33378 6.45385,-10.31086 6.94568,-22.25406 16.51538,-46.61897 37.70004,-56.35017 15.64975,-7.18873 33.84283,-4.46477 50.82439,-1.5979 0.68171,-20.31782 12.07157,-39.97376 29.36039,-50.6684 17.28882,-10.69464 39.9622,-12.10978 58.44666,-3.6479 15.59173,7.13764 27.65029,20.54363 36.0655,35.48459 7.34769,13.04561 12.23756,27.51461 13.9096,42.39348 3.9645,35.27857 -11.45416,72.13067 -39.36024,94.07481 -4.19815,11.91725 6.75667,23.13502 14.9546,32.74955 29.47838,34.5722 30.72119,84.29455 30.47868,129.7275 -0.0702,13.14654 -0.55133,27.47198 -9.00722,37.53847 -8.59169,10.22816 -22.90125,13.09079 -34.54458,19.63795 -27.78776,15.62532 -37.80011,50.10524 -57.71747,74.99719 -22.27974,27.84437 -58.88623,43.55106 -94.4173,40.51148 -2.32134,-0.19858 -4.74633,-0.51174 -6.65071,-1.85391 -1.71362,-1.20772 -2.79228,-3.09975 -3.81586,-4.92933 -13.97131,-24.97283 -27.94262,-49.94566 -41.91394,-74.9185 -10.49172,-18.75329 -21.27519,-38.56755 -21.32739,-60.05606 -0.0141,-5.78718 1.40627,-12.32539 5.09756,-16.93244 5.27729,-6.58652 11.17738,-2.79846 17.60851,-6.04245 5.52122,-2.78502 4.00831,-7.93699 2.19723,-12.7642 -2.74652,-7.32052 -5.95648,-14.06467 -7.15015,-21.9004 -1.47842,-9.705 -0.69277,-19.77829 2.48453,-29.07905 z"
       fill="#ffffff"
       id="path842" />
    <path
       d="m 793.39097,238.45998 c -2.81021,3.71697 -7.52602,6.00662 -9.25639,10.33316 11.14772,7.17666 26.7045,2.62885 38.37262,8.92416 5.68866,3.06921 9.78485,8.38522 13.42176,13.72879 8.72303,12.81643 15.93995,27.00417 18.36545,42.31655 2.4255,15.31238 -0.39215,31.90582 -9.99084,44.08027 -1.55679,1.97455 -3.38668,4.16118 -3.06634,6.65514 0.24539,1.91039 1.70252,3.39938 2.99167,4.83043 8.87268,9.8493 12.81322,23.93616 10.33877,36.95961 -1.31589,6.92575 -4.30469,13.42892 -5.89638,20.29653 -3.83241,16.53557 0.50544,34.7112 -6.29422,50.2636 -4.61312,10.55129 -13.92173,18.49663 -24.21893,23.65204 -10.2972,5.15541 -21.63267,7.81897 -32.87026,10.33437 -7.34653,1.64443 -15.32091,3.18722 -22.16465,0.0505 -2.09172,-0.95869 -4.33745,-1.3212 -6.54655,-1.96494 -5.37769,-1.56714 -9.42331,2.94479 -11.62669,8.32257 -4.08219,9.96341 -19.02635,11.65941 -29.30804,8.46266 -3.47174,-1.07942 -6.8252,-2.93492 -8.97304,-5.86834 -4.11267,-5.61691 -2.83328,-13.32541 -3.35297,-20.26757 -1.46484,-19.56781 -17.84478,-34.32182 -26.12959,-52.10965 -4.00247,-8.59347 -6.13263,-18.00332 -10.5828,-26.37372 -2.97206,-5.59021 -6.94085,-10.63972 -9.50218,-16.42963 -4.91538,-11.11129 -4.02426,-24.60769 2.30936,-34.97625 2.93503,-4.80483 6.9046,-8.89385 10.06383,-13.55434 5.72976,-8.45255 8.59798,-18.45914 11.66332,-28.19975 4.66248,-14.81578 9.97267,-29.42771 15.91031,-43.78007 3.15221,-7.61946 6.50026,-15.20183 10.94735,-22.14562 9.05925,-14.1453 22.40403,-24.96533 37.15997,-32.74319 7.63481,-4.02432 15.67037,-7.26973 23.89147,-9.88246 5.81622,-1.84844 14.0523,-5.32778 19.97075,-2.06387 6.77403,3.73575 8.92376,15.13015 4.37322,21.14898 z"
       fill="#ffffff"
       id="path844" />
  </g>
  <g
     id="uuid-812d3a77-22ad-4022-a05b-015e3aa21a6d"
     transform="translate(-199.29487,-173.09441)">
    <g
       id="g871">
      <path
         d="m 669.0572,624.6634 c 0,0 16.91814,-29.94617 52.09105,-26.71967 -8.73278,26.81975 -52.09105,26.71967 -52.09105,26.71967 z"
         fill="#f08334"
         id="path847" />
      <path
         d="m 713.89223,622.33633 c 0,0 25.59411,-22.9769 57.89577,-8.68892 -16.83896,22.62763 -57.89577,8.68892 -57.89577,8.68892 z"
         fill="#f08334"
         id="path849" />
      <path
         d="m 414.3209,554.06008 c 0,0 0.045,-41.89995 -39.17552,-59.59603 -6.84454,33.67182 39.17552,59.59603 39.17552,59.59603 z"
         fill="#f08334"
         id="path851" />
      <path
         d="m 377.21376,477.39434 c 0,0 -17.91181,-37.87842 -60.93198,-37.06349 8.24257,33.35715 60.93198,37.06349 60.93198,37.06349 z"
         fill="#f08334"
         id="path853" />
      <path
         d="m 361.75406,520.56041 c 0,0 -11.21003,-33.38992 -47.20299,-36.96006 3.58503,28.66031 47.20299,36.96006 47.20299,36.96006 z"
         fill="#f08334"
         id="path855" />
      <path
         d="m 416.83925,519.32766 c 0,0 21.59996,-33.14979 -0.34411,-67.34543 -22.74858,23.13596 0.34411,67.34543 0.34411,67.34543 z"
         fill="#f08334"
         id="path857" />
      <path
         d="m 394.14506,469.587 c 0,0 8.15007,-31.58738 -17.99771,-52.52884 -11.68369,24.06558 17.99771,52.52884 17.99771,52.52884 z"
         fill="#f08334"
         id="path859" />
      <path
         d="m 741.51134,594.54771 c 0,0 11.53096,-23.80924 38.68681,-23.04214 -5.39977,21.01152 -38.68681,23.04214 -38.68681,23.04214 z"
         fill="#f08334"
         id="path861" />
      <path
         d="m 783.73145,561.24044 c 0,0 20.62023,-16.57254 44.82852,-4.24423 -13.88162,16.6716 -44.82852,4.24423 -44.82852,4.24423 z"
         fill="#f08334"
         id="path863" />
      <path
         d="m 780.60598,590.02033 c 0,0 15.57601,-15.87175 37.0027,-7.9721 -9.94095,15.28867 -37.0027,7.9721 -37.0027,7.9721 z"
         fill="#f08334"
         id="path865" />
      <path
         d="m 749.66067,574.12705 c 0,0 -3.12446,-24.78476 18.77011,-38.15354 6.53875,19.41426 -18.77011,38.15354 -18.77011,38.15354 z"
         fill="#f08334"
         id="path867" />
      <path
         d="m 776.26878,552.13646 c 0,0 4.08339,-20.18776 24.70978,-24.86947 -0.002,16.89041 -24.70978,24.86947 -24.70978,24.86947 z"
         fill="#f08334"
         id="path869" />
    </g>
    <g
       id="g877">
      <path
         d="m 801.34346,735.43549 c -11.68138,8.95512 -27.65331,11.17626 -38.8039,21.01709 1.74157,12.81623 -0.20696,26.67704 -5.0527,37.88325 -3.87935,8.97116 -10.51133,16.05281 -19.6902,19.56929 -3.94736,1.51228 -7.96277,2.56351 -11.7343,4.55325 -5.09944,2.69024 -9.92966,5.80854 -15.16392,8.26745 -6.60974,3.1051 -15.70082,-1.34404 -17.9368,-8.08647 -4.50515,-13.58518 -5.63601,-28.02773 -3.71775,-42.20088 1.64342,-12.14271 6.81616,-23.52569 10.96165,-34.96687 8.68105,-23.95861 18.50049,-47.71907 38.38095,-64.61452 2.6679,-2.26732 6.15218,-2.95763 9.53256,-2.49195 1.11128,-2.43056 2.39559,-4.74635 3.99712,-6.74696 3.90965,-4.88399 10.22706,-6.42136 15.43414,-9.44937 5.61172,-3.2633 10.85487,-7.16905 16.00674,-11.1308 -2.08413,-0.32092 -4.1675,-0.65305 -6.25255,-0.9615 -24.06181,-3.55927 -48.30307,-5.34658 -72.62749,-4.93335 -23.84242,0.40501 -47.86307,2.48062 -71.49379,5.67411 -5.86956,0.79322 -11.57695,1.76089 -17.18941,3.14877 -0.88214,1.13111 -1.74815,2.28216 -2.59192,3.46064 -2.6944,3.76354 -7.01566,5.69996 -11.50908,6.03111 -2.63272,2.5682 -5.04428,5.40631 -7.2138,8.71566 -2.11375,3.22441 -5.50465,5.07301 -9.20974,5.77205 -3.43849,3.21465 -6.93167,6.32027 -10.4044,9.30542 -12.70096,10.91783 -27.5463,18.56832 -43.7309,16.39293 -1.22562,0.64665 -2.45289,1.2876 -3.6823,1.90176 -7.7715,3.88233 -16.23039,5.90572 -24.56542,2.22209 -7.66869,-3.38906 -11.84131,-11.25691 -12.80347,-19.25307 -0.45052,-0.30673 -0.89478,-0.62407 -1.31135,-0.98163 -7.80456,-6.70001 -12.16976,-15.34769 -16.73666,-24.37315 -0.49286,-0.98928 -0.99417,-1.97443 -1.49764,-2.95838 l -0.002,-0.004 c -0.0405,-0.0593 -0.18812,-0.31225 -0.45054,-0.77279 -1.2892,-2.15541 -2.66677,-4.26154 -4.02663,-6.37314 -2.61637,-4.06249 -5.32597,-8.06731 -7.80114,-12.21928 -10.07994,-16.90863 -19.1933,-36.6053 -22.81871,-56.22786 -1.67591,-1.03863 -3.35132,-2.10027 -5.04265,-3.16237 -6.15075,-3.86246 -13.97763,-7.35189 -21.68365,-9.36939 -9.63681,-2.52312 -19.42267,-4.72723 -29.4237,-4.66953 -4.83355,0.0279 -9.65909,0.28333 -14.48032,0.62772 -5.37252,0.38377 -10.32461,2.98574 -13.76813,7.12741 -4.29947,5.17116 -8.39558,10.51122 -12.28445,16.00243 1.12907,0.52014 2.22628,1.166 3.2702,1.95467 4.43164,3.34819 7.73826,7.80272 10.94107,12.27427 2.92129,4.07849 6.24791,7.84602 9.89146,11.29458 9.54473,9.03392 19.09181,18.51667 29.61481,26.46209 10.65092,8.04186 20.67955,15.0389 29.4347,25.30507 8.301,9.73355 16.28233,19.77715 24.36533,29.69237 7.92148,9.71698 15.97372,19.46855 22.27954,30.34605 3.50853,6.0521 6.83139,12.16812 8.62292,18.9598 1.83889,6.97139 2.59744,14.05813 3.81379,21.13961 2.14774,12.50397 3.55818,23.54707 -2.13382,35.44838 -4.61209,9.64351 -11.39701,18.41255 -18.17069,26.62679 -7.40291,8.97736 -26.23285,8.15711 -29.27957,-4.88377 -3.53383,-15.12596 -4.52991,-30.28678 -5.73683,-45.62691 -1.05673,-1.22077 -2.02403,-2.5188 -2.93393,-3.86308 l -10e-4,-4e-4 c -2.00305,0.65375 -4.30018,0.33409 -5.99555,-1.07244 l -0.81857,-0.67911 c -0.34824,-0.28891 -0.64541,-0.59357 -0.90764,-0.90712 -1.5174,0.28185 -3.21542,-0.13111 -4.86309,-1.57706 -9.47431,-8.31439 -18.63449,-17.40862 -26.08375,-27.67454 -1.70695,-1.77548 -3.40089,-3.56373 -5.06078,-5.3852 -2.96907,-3.25817 -5.69957,-6.65282 -8.29895,-10.12779 -0.34122,-0.37647 -0.67056,-0.76282 -1.00824,-1.14234 -5.75944,-4.80425 -11.43136,-9.72311 -16.81708,-14.92957 -1.94378,0.25079 -3.96552,-0.46874 -5.38371,-2.65988 -2.2833,-3.52772 -4.70628,-6.94738 -7.21283,-10.29977 -0.11392,-0.0988 -0.22828,-0.19557 -0.3395,-0.30642 -1.97463,-1.96814 -3.91615,-3.97389 -5.84631,-5.99279 -1.59841,-0.10319 -3.19979,-0.82339 -4.4836,-2.38283 -7.91197,-9.61036 -17.04625,-18.04833 -26.15407,-26.49955 -0.22248,-0.20647 -0.42282,-0.41807 -0.60896,-0.63259 -9.69498,31.35638 -13.54856,65.08461 -10.31593,99.80087 9.29216,99.7916 74.33451,180.95407 161.4863,215.61619 0.99812,-1.45629 2.23574,-2.74381 3.6476,-3.772 -0.10897,-5.40137 0.52542,-10.76989 3.01506,-15.69436 1.57085,-3.10719 3.79703,-5.15414 6.29808,-6.33698 1.95407,-5.56926 4.31458,-10.94938 8.42365,-15.59282 1.66116,-1.87729 3.76222,-3.27193 6.04983,-4.10243 2.21251,-3.8131 4.95653,-7.24023 8.42442,-10.46276 3.68986,-3.42878 8.90779,-3.43035 13.30548,-1.46941 1.58079,-1.76446 3.37496,-3.33642 5.43634,-4.61018 3.65868,-2.26084 7.664,-2.88541 11.28506,-2.06047 0.20055,-0.26667 0.3852,-0.53743 0.59473,-0.8018 3.99013,-5.03379 11.52883,-6.25102 17.12109,-3.49394 1.26535,-3.16357 3.77856,-5.93009 7.71815,-7.53405 9.27815,-3.77748 20.7738,-2.14896 30.10755,0.58621 9.9197,2.90683 19.43434,7.2521 24.97056,16.01112 1.09276,0.71231 2.17719,1.4638 3.25088,2.27105 1.46577,1.1021 3.06225,2.39668 4.71733,3.83478 0.51837,-0.27685 1.0656,-0.52988 1.65001,-0.75053 7.25117,-2.73807 14.97084,1.18726 17.93694,8.08646 5.60854,13.04566 8.86177,27.65256 12.57191,39.96039 0.62948,2.08818 1.28475,4.30839 1.87194,6.59549 99.00756,-38.4351 166.54312,-135.64421 164.20921,-245.37892 -1.76302,1.6966 -3.6108,3.27724 -5.48284,4.71242 z m -323.84622,94.55772 c -6.91177,9.04262 -11.9189,19.96679 -15.16322,30.8422 -3.05177,10.2299 -5.52558,22.32565 -0.68426,32.3673 4.1444,8.59595 -9.73445,13.72937 -13.82986,5.23498 -5.9521,-12.34567 -3.76144,-27.52872 -0.0444,-40.19378 3.94206,-13.4323 9.80795,-26.52256 18.3439,-37.69015 5.79267,-7.57854 17.1484,1.88984 11.37788,9.43946 z m 164.11876,-61.33305 -0.10615,0.40111 c 0.46945,5.98973 -0.21255,11.89867 -3.45974,17.59872 -5.1561,9.05087 -14.96578,16.12406 -22.48187,23.19389 -7.50101,7.05548 -16.00441,12.70645 -25.96475,15.62978 -5.21019,1.52918 -10.34811,3.33234 -15.51518,5.02645 -2.32632,1.09775 -4.74534,2.00854 -7.27039,2.69081 -1.81066,0.48924 -3.58012,0.79464 -5.31067,0.95306 -1.98694,0.47253 -3.98409,0.90636 -6.00872,1.23635 -0.633,0.1032 -1.2603,0.13002 -1.88357,0.12397 -0.22451,0.0885 -0.44161,0.18725 -0.67214,0.26716 -14.7035,5.09658 -31.23235,-8.14104 -37.33701,-20.69851 -5.39589,-11.09966 -4.41073,-24.64421 -2.44257,-36.49623 1.98705,-11.96602 6.01093,-24.51444 15.96558,-32.18284 6.30099,-4.8538 13.32084,-2.87525 17.77164,1.96214 0.26082,-11.27033 -0.55381,-22.56486 2.01437,-33.67783 2.06783,-8.94777 11.71866,-14.00028 19.7209,-10.09361 0.72629,-2.02989 1.59703,-4.02243 2.6521,-5.96568 1.66697,-3.07029 3.89332,-5.16178 6.35002,-6.39943 0.38449,-1.39247 0.81075,-2.78258 1.33493,-4.16718 1.88542,-4.98003 6.24309,-7.4596 10.88608,-7.79494 6.77804,-4.04617 16.76392,-0.66245 20.4856,7.02861 7.41973,15.3338 7.13594,32.46786 9.7732,48.86224 2.03742,1.01638 3.69279,2.55409 4.97033,4.4445 6.88588,-3.54192 15.99219,-2.18218 18.84922,7.00556 2.51295,8.08118 1.50163,15.38018 -2.32121,21.0519 z"
         fill="#f08334"
         id="path873" />
      <path
         d="m 475.60852,979.28453 c -5.60013,-1.27002 -7.67508,-7.58098 -4.76534,-12.53151 9.13944,-15.54953 48.2695,-53.16406 91.92792,-51.14422 43.38228,2.00704 60.26317,25.12362 68.20349,50.09531 1.58615,4.98832 -0.65397,10.29641 -5.79446,11.28362 -23.36315,4.48682 -91.37341,15.49523 -149.5716,2.29679 z"
         fill="#f08334"
         id="path875" />
    </g>
  </g>
  <g
     id="uuid-77859cbe-f3bb-4e28-80a5-c0200919aacc"
     transform="translate(-199.29487,-173.09441)">
    <path
       d="m 673.77132,715.78019 c 0,0 -13.15262,12.59441 -17.28398,26.81672 -4.13138,14.22207 -13.27883,48.77931 -24.12412,61.82065 -10.84521,13.04141 -47.80908,32.69446 -76.71822,35.17458 -28.90922,2.48013 -45.55092,-24.38414 -48.96109,-43.2391 -3.41018,-18.85505 9.40978,-59.70323 9.40978,-59.70323 l -25.85297,-2.79323 c 0,0 0.42598,1.8181 -0.94789,18.48964 -1.36487,16.56126 -22.50587,66.9467 -23.55525,67.34586 0.70726,0.0622 7.12092,1.52415 7.72172,4.81883 0.6676,3.66038 -16.07002,21.78491 -18.06596,42.28609 -3.27223,28.14033 10.75966,47.75972 19.15213,67.01786 17.86063,-15.58321 40.74274,-26.31054 63.7502,-29.32832 32.08994,-4.20921 62.3337,5.47186 88.29565,23.70392 0.2874,0.20175 0.5533,0.42519 0.83772,0.63 -3.69635,-7.73345 -12.8114,-14.6225 -16.19455,-16.45239 5.43437,0.95964 26.7396,2.04162 41.65003,-0.0758 17.29353,-2.45567 41.75058,-24.59114 45.40171,-38.18814 3.65114,-13.59692 -6.48221,-46.56218 -12.76772,-75.90918 -6.28567,-29.34707 12.47779,-82.03157 12.38116,-82.76855 -0.0967,-0.73697 -24.12834,0.35376 -24.12834,0.35376 z"
       fill="#eb4f2e"
       id="path880" />
  </g>
  <g
     id="uuid-f1ddaade-b658-4507-89ff-f287b56b48d3"
     transform="translate(-199.29487,-173.09441)">
    <path
       d="m 1010.584,283.29603 c -0.4028,-1.25265 -0.7824,-2.607 -1.1268,-4.09891 -2.4636,-10.67681 -8.2352,-17.45854 -18.27544,-19.63921 -2.68531,-8.51281 -7.88508,-14.09684 -16.2093,-16.30205 -0.0599,-1.27608 -0.10661,-2.60525 -0.136,-4.0155 -0.93323,-44.82076 -20.23083,-46.36761 -22.92798,-46.46299 -3.74356,-0.13001 -5.89453,0.16453 -8.30253,2.4894 -3.98161,3.8442 -2.64547,7.63516 -2.25404,21.92268 0.14571,5.31969 0.99063,15.1934 1.3812,22.24547 -2.29649,-2.39178 -6.85067,-5.38857 -13.77612,-4.17315 -10.70339,1.87829 -13.59635,11.24006 -14.50344,19.8288 -0.90693,8.58873 -5.37747,21.63921 -7.62071,26.437 -2.24311,4.79737 -10.10139,16.09148 -7.99996,30.94198 2.10141,14.85026 25.46039,18.49233 39.28595,24.43844 13.82555,5.94595 28.33775,10.53291 28.35404,25.87534 l 5.4e-4,-3.8e-4 -5.3e-4,4.6e-4 c 0,0 -19.63118,81.73493 -42.365,135.491 -7.45396,17.62555 -15.99849,32.9124 -29.77842,45.96386 -46.79276,44.31956 -102.31421,88.63045 -148.42603,116.16748 -12.24851,7.3145 -27.49202,20.47161 -34.65811,30.13197 -6.23447,8.40449 -11.68648,16.42537 -11.68648,16.42537 -13.75992,3.67887 -42.28562,4.79687 -48.57362,5.43432 -16.2308,-12.30104 -21.02423,-38.84537 -21.54414,-59.95341 -0.51993,-21.10812 -1.19932,-19.14495 2.69961,-22.27999 21.54579,-15.75673 27.91484,-37.20634 27.91484,-37.20634 67.96318,-11.91283 85.89928,-56.61799 88.2455,-80.16355 -20.85428,8.16998 -34.61729,8.61857 -34.83306,3.19474 -0.54395,-13.6714 19.6993,-59.69273 -48.28104,-143.10108 1.17833,-1.29207 15.28315,-15.06357 19.35751,-36.13323 14.90729,-23.50655 14.61732,-25.71716 27.92352,-58.57104 13.30636,-32.8539 40.72937,-52.37995 67.58187,-51.96674 0,0 -32.19456,34.58189 -14.25695,69.89657 0,0 2.59988,-27.32677 25.6106,-33.34339 31.92628,-6.62376 49.00897,20.74468 53.44006,44.52561 0.94856,15.8047 4.54611,38.94528 -28.89595,65.44507 0,0 5.62479,-25.62008 -2.89414,-39.09159 -0.56525,-0.89385 -1.7695,-1.12473 -2.61159,-0.48508 -0.553,0.42007 -0.80085,1.1202 -0.65249,1.79871 4.46968,20.44681 -2.33199,43.68642 -25.00968,63.04241 35.4903,3.40307 55.4653,-24.3287 55.4653,-24.3287 0,0 3.20486,2.2123 4.15262,8.15248 0.79882,5.00725 -0.66356,10.13929 -3.77155,14.14569 -11.06869,14.26809 -27.33663,23.26563 -53.05236,21.90332 29.41095,15.63197 57.98184,10.57258 57.98184,10.57258 0,0 -16.24516,23.30714 -46.67653,25.6122 13.97763,9.41055 36.31793,6.85508 36.31793,6.85508 0,0 -15.6723,38.78625 -78.06924,48.84472 39.20044,18.83024 106.16541,-13.55063 129.45322,-73.19438 0.0972,-0.24892 -0.28136,-0.43075 -0.45885,-0.23095 -2.60404,2.93246 -10.99213,9.60149 -30.91669,9.96253 0,0 26.2179,-24.42785 28.09584,-52.97174 -15.23043,19.61343 -18.3202,11.77311 -18.3202,11.77311 7.62548,-23.30097 6.87329,-33.32182 2.07688,-52.7446 -2.63883,5.53299 -10.01318,14.93816 -13.56138,19.32603 -0.96725,1.19613 -2.81296,1.11759 -3.67397,-0.15715 l -0.80444,-1.19091 c -1.12303,-1.6627 -1.17047,-3.82019 -0.11811,-5.52848 5.01502,-8.14165 18.61084,-33.69092 13.89842,-64.92522 -4.90844,-30.27749 -29.82858,-61.67794 -67.28185,-54.3289 0,0 15.77089,-25.49381 18.60381,-29.61343 -53.01093,-26.96604 -99.0376,22.17328 -111.52856,52.67133 -0.30533,0.50204 -0.97366,-61.71441 -56.0956,-83.34402 -28.61346,-9.55226 -64.68634,1.17599 -77.89626,23.33545 -13.20992,22.15946 -9.38299,41.3344 -5.86435,43.87119 10.61817,-39.06022 32.65943,-45.32444 33.04303,-46.68665 0.38345,-1.36204 46.20537,-23.48883 74.75609,21.30296 28.55075,44.79212 7.99019,93.77684 -4.12629,121.41487 -9.16902,15.81984 -13.59356,12.09007 -12.54884,5.76884 11.82638,-41.2804 0.4339,-53.84118 -26.41879,-65.68573 23.43982,11.54271 22.80319,39.54894 22.80319,39.54894 0,0 -4.12894,-15.76214 -15.75988,-25.8555 -22.53999,-18.96926 -49.00872,-9.31343 -49.00872,-9.31343 13.32199,0.12668 26.52351,10.7635 32.5702,31.14669 6.04685,20.38309 -3.75065,19.98172 -6.87656,17.58068 -10.23295,-26.58045 -22.28355,-29.87232 -22.28355,-29.87232 0,0 12.6761,15.20344 15.08033,27.81876 -5.36683,0.51648 -8.19685,-2.48544 -8.19685,-2.48544 -8.52634,-14.99831 -13.21668,-20.75457 -20.54078,-23.72922 16.18746,21.06425 10.82251,23.70693 10.44093,23.91463 0.29436,-0.3576 -37.0755,-42.53765 -96.31728,-35.70095 20.82972,-31.21702 50.82921,-32.52837 75.36552,-22.62864 -21.91205,-25.61079 -63.64758,-2.33326 -63.64758,-2.33326 0,0 14.58389,-27.39973 56.89081,-24.89062 -26.65673,-28.92379 -80.43957,6.80317 -92.39867,52.78553 -28.74909,2.27198 -36.3478,7.20396 -36.3478,7.20396 -23.92566,14.75703 -30.77211,33.52052 -23.58764,57.8149 7.18455,24.29429 24.4042,56.51738 61.73792,61.11539 -28.72335,41.99729 -17.40309,69.2473 -17.40309,69.2473 0,0 2.67371,-10.09558 8.49258,-13.35745 13.05911,-5.21109 14.41236,5.1058 21.30662,11.9474 -4.05532,-9.96246 -7.45819,-18.76127 -22.41013,-16.55018 6.08815,-29.78318 19.3927,-50.26846 19.54167,-51.03763 0.14898,-0.76908 13.65134,1.20788 30.4997,-7.49865 9.58431,-4.9527 18.42472,-8.28162 24.26627,-10.2316 1.64706,-0.5498 1.5208,-2.92846 -0.17727,-3.29132 -8.27744,-1.76863 -22.10946,-6.2185 -33.61728,-17.21035 -14.85144,-14.18565 -24.65716,-27.58952 -27.57824,-32.5727 1.76403,4.305 6.04492,14.99897 12.98472,27.99038 -6.23382,-3.1389 -12.73042,-13.01957 -28.77961,-22.62296 3.20581,3.58109 5.29973,9.15198 11.99522,16.5788 9.06472,10.05512 19.94572,20.6216 30.22659,28.51813 -64.26133,9.17852 -84.40101,-43.40054 -72.28439,-67.228 12.11643,-23.8276 35.4898,-21.45105 44.11425,-17.84244 45.01017,18.83303 76.09035,79.21714 75.38646,74.38645 -1.33168,-9.13974 -21.72522,-50.34417 -58.31211,-75.81389 45.82994,-18.25513 75.40041,18.59471 85.97533,34.44855 10.57507,15.85374 2.4128,27.91862 -0.003,24.73729 -10.41423,-29.86747 -16.53933,-36.56018 -39.94001,-49.23236 38.39415,27.17014 27.16878,53.44607 16.94858,72.40504 -0.74258,1.37759 0.16447,3.05648 1.71971,3.23091 14.56712,1.63337 21.55801,-12.94243 39.01844,-18.73666 18.67675,-6.19774 26.24355,7.66224 28.2733,15.53135 2.18196,8.45914 -3.22531,15.41511 -26.53702,22.47076 15.76922,4.07062 33.88671,-7.47445 36.71743,-5.81567 4.25468,3.7834 -4.68325,8.11035 -25.84856,14.38464 8.39769,4.07663 21.42132,2.41294 27.02277,1.41914 0.89374,-0.1586 1.33566,1.03339 0.56038,1.50544 -2.55339,1.55462 -8.11771,3.73662 -20.21775,5.60432 20.67645,10.11524 31.54098,5.33652 34.69073,4.13269 0.058,-0.0222 2.02354,1.14011 0.90304,2.59888 -2.62523,3.41793 -18.39157,9.8199 -35.08209,6.69416 8.33321,7.35387 25.46015,9.80562 34.45529,10.87684 0.75707,0.0901 0.71829,1.19983 -0.0424,1.24959 -17.93313,1.17379 -26.91968,0.31779 -44.46408,-12.55702 13.70421,30.18549 47.55037,27.24517 47.647,27.98207 0.0967,0.73697 0.90888,1.84859 -0.31441,3.55508 -1.16374,1.62335 -18.2191,3.6547 -23.78463,7.61731 -2.66574,6.34649 5.19716,8.54777 5.19716,8.54777 0,0 -7.88729,16.90121 -7.27531,17.39869 0.69302,0.5636 5.52025,6.72518 9.74845,4.67135 17.58893,-33.54056 46.77189,-29.52878 50.89986,-7.58212 4.71652,53.10286 -28.163,63.4124 -56.53691,56.63971 9.1422,58.26927 -101.34711,126.48343 -114.64799,122.23123 -19.09179,-6.491 -62.6809,-94.97374 -69.34985,-115.3377 -5.92208,-18.0836 -6.10227,-31.69887 0.113,-40.75518 1.31558,-1.91697 3.65373,-2.84579 5.95104,-2.48801 8.93273,1.39113 17.05464,-1.68565 17.3597,-1.05742 0.34232,0.70471 -5.99651,-20.95196 2.16203,-23.52131 8.82371,-2.26973 17.91927,20.18527 19.80755,25.13616 0.20279,0.53158 0.79208,0.79677 1.32738,0.60417 l 1.03852,-0.37373 c 0.45415,-0.16341 0.74176,-0.62508 0.69207,-1.10517 -3.36966,-32.55417 -22.90598,-35.99985 -22.90598,-35.99985 0,0 -11.34392,-0.76079 -10.99707,20.9322 -5.02167,-2.08992 -5.18274,-3.31811 -9.86623,-10.44977 -0.24879,9.21536 9.16829,15.28882 9.16829,15.28882 l -0.38527,4.04827 c 0,0 -3.61766,0.65105 -9.58569,-0.80609 -2.98372,-0.72843 -6.11954,0.13199 -8.25787,2.33669 -9.77574,10.07935 -25.48613,46.68487 56.44959,162.94098 10.28051,14.58661 45.40703,15.03285 45.40703,15.03285 0,0 1.78824,13.63321 0.92454,15.6204 -54.64727,3.41998 -69.59524,-27.74335 -92.84299,-53.78717 -52.72352,-59.06469 -113.59667,-94.53795 -163.22715,-171.6127 -22.19328,-49.18644 -36.20722,-168.40908 -36.20722,-168.40908 1.83315,-15.23272 16.78644,-18.06863 31.21898,-22.33536 14.43237,-4.26679 38.05836,-5.11689 41.90368,-19.61401 3.84543,-14.49689 -2.62004,-26.64209 -4.2792,-31.67147 -1.65918,-5.02963 -4.5527,-18.5177 -4.43608,-27.15355 0.11648,-8.63559 -1.64738,-18.27411 -12.053,-21.40669 -6.73293,-2.02703 -11.60983,0.4094 -14.17351,2.51217 1.22295,-6.95608 3.23144,-16.66051 4.00619,-21.92543 2.08064,-14.14047 3.85643,-17.74677 0.35795,-22.03524 -2.11567,-2.59352 -4.21657,-3.14077 -7.94925,-3.45489 -2.68935,-0.22474 -22.03433,-0.97448 -28.26928,43.42059 -0.19614,1.3967 -0.39987,2.71097 -0.61055,3.97083 -8.52678,1.2038 -14.35114,6.13283 -18.02592,14.2677 -10.22776,0.97638 -16.76187,7.02684 -20.47269,17.33669 -0.51864,1.4407 -1.05603,2.74062 -1.60424,3.93653 -20.36975,12.12623 -23.34773,41.29182 -23.34773,41.29182 -11.96751,72.04857 -4.05355,177.52015 2.28124,217.29534 6.37327,40.01743 13.97224,46.51671 13.97224,46.51671 0,0 79.65081,121.48264 198.27967,217.23852 2.29545,6.07049 6.89616,40.81998 37.53612,63.29039 -21.35842,20.04234 -17.42513,75.74665 10.54218,88.94434 -1.93837,15.03948 -2.6798,30.13559 -2.2479,44.91043 0.12982,4.43945 8.79362,7.97073 12.4653,-1.04556 22.0277,-54.09108 92.61795,-61.15652 93.56066,-64.50452 2.75104,-9.77022 -85.25562,17.71044 -103.04313,-16.93684 -13.97304,-27.21705 3.40162,-52.16878 20.49544,-76.14942 16.76804,-23.52358 21.27937,-69.00224 21.55466,-71.6767 0.0528,-0.0535 0.0772,-0.0782 0.12994,-0.13158 1.29881,-0.1456 12.97493,-1.45857 15.1404,-1.16774 0.20626,0.0277 0.31787,0.23248 0.25475,0.43086 -16.8787,53.07619 -6.42507,98.02995 35.51018,104.00204 42.01297,5.98315 95.85219,-29.31384 105.29469,-58.2877 9.43333,-28.94516 14.55023,-56.57621 24.36543,-61.6534 0.0244,-0.0104 0.0488,-0.021 0.0731,-0.0315 5.79013,-2.04883 10.8911,-2.13661 12.13176,-2.1244 0.16423,0.002 0.2586,0.13714 0.2239,0.29775 -14.23907,65.89525 -6.20319,96.79485 -3.06762,116.80726 3.06891,19.58683 1.28215,26.58462 -4.8637,39.11756 -6.37705,13.00415 -18.03488,22.63895 -32.06798,26.22312 -13.84715,3.53664 -37.4932,5.76148 -61.75104,-1.27132 -1.01009,-0.29282 -1.79039,0.9314 -1.08264,1.70931 16.13237,17.73085 43.78065,17.95889 51.52953,65.85457 0.6842,4.22898 5.00077,5.25718 9.10984,4.04486 3.44934,-1.01767 50.11599,-7.12601 67.25853,-73.27823 7.45228,-34.20469 0.48718,-48.06099 -6.32315,-68.85387 22.06839,-7.22703 58.86048,-32.09467 64.74396,-61.36903 121.08806,-78.84947 209.74829,-184.61251 209.74829,-184.61251 0,0 13.17011,-17.03582 19.38281,-44.53459 8.9156,-39.46235 31.5368,-143.4736 27.9574,-216.47979 0,0 -0.6272,-31.77747 -18.2509,-42.78238 z M 677.17839,486.01386 c -5.84673,-21.04235 -23.08968,-93.16705 -79.23978,-113.57763 -2.3658,-0.86005 -4.06013,-21.21892 1.75981,-19.96728 33.0857,7.11529 80.58183,40.4209 99.4646,115.4193 0.17709,0.70368 5.81143,21.44648 -13.56762,23.98837 -3.83441,0.50291 -7.38172,-2.13665 -8.417,-5.86277 z M 245.53518,222.67915 c 3.1459,-2.20991 5.48464,-2.92456 7.17903,-3.33454 -2.8869,15.01919 -7.43524,19.67986 -18.35037,24.30803 3.75836,-7.55388 4.96121,-16.6116 11.17135,-20.9735 z m -19.28365,14.42908 c 3.55841,-2.49954 6.08446,-3.08822 7.81049,-3.48383 -0.0277,0.0756 -0.059,0.14564 -0.0863,0.22185 -2.27856,6.33044 -4.9026,10.1304 -7.33978,12.80247 -0.88885,0.32688 -1.79752,0.6592 -2.74874,1.0065 -1.61703,0.59078 -3.30128,1.2061 -5.05685,1.85895 -0.11177,0.0416 -0.21689,0.0898 -0.32777,0.13212 1.85325,-5.0189 3.77173,-9.74423 7.74898,-12.53807 z m 221.06031,588.3961 c -12.7153,-14.0738 -15.99266,-24.13834 -11.29347,-39.74672 11.72574,-9.90182 14.68293,-17.70207 14.8079,-19.18329 0.55424,-6.56917 -20.13135,9.71689 -33.50814,-4.14504 -45.29673,-37.57965 -147.14261,-130.82736 -193.84809,-210.5769 -5.61421,-9.58625 -10.10981,-21.17646 -12.05483,-32.11406 -6.3427,-35.66745 -18.07652,-123.65852 -8.49575,-227.98748 1.11232,-9.83169 3.9245,-27.70394 19.46161,-33.0102 1.74217,-0.595 3.38059,-1.24632 4.96926,-1.82596 23.56697,-8.60323 27.45304,-13.185 32.95536,-45.92573 4.31548,-25.67759 10.4846,-33.81555 14.55366,-36.20322 4.52416,-2.6548 10.0153,-1.86608 12.20458,0.17944 2.99006,2.7937 0.80353,8.98376 -1.22278,20.68081 -1.3406,7.73882 -3.91195,18.46264 -5.16109,24.94534 -1.87685,9.74117 -3.47961,16.21001 -4.41805,22.03687 -2.59155,16.0904 -4.58174,22.23841 16.57332,29.81551 3.93741,1.40758 5.17127,1.58629 5.29795,0.48566 0.1628,-1.41532 -0.79064,-1.15495 -4.5848,-3.01869 -9.31286,-4.57446 -14.97261,-6.78448 -13.97019,-16.28603 0.81651,-7.73804 3.97838,-23.4669 5.29601,-32.1067 2.34592,-1.15765 6.12589,-2.74073 8.9607,-2.55093 4.41157,0.29615 7.98546,1.82644 10.73595,9.46134 2.75056,7.63481 -2.1822,17.65188 1.46643,34.03926 3.64873,16.38762 9.65678,28.84966 -19.34669,32.52181 -28.84912,3.65271 -58.23532,9.99672 -58.06833,26.23201 -0.66553,-0.46295 9.79517,102.42914 29.73987,161.01172 6.55298,19.24756 8.87763,38.85926 9.66692,48.73554 0.0981,1.22679 1.82558,1.38837 2.16561,0.20556 0.96119,-3.34424 2.09254,-7.11341 2.79198,-8.88154 76.07324,102.46219 137.34957,124.39294 189.61741,202.63296 22.99654,34.42359 12.13035,69.62125 -15.29231,100.57864 z m 189.46003,-61.7689 c 3.50662,8.16053 3.24699,14.75364 -10.38278,32.28308 -13.62985,17.52945 -46.86713,37.63733 -77.63335,32.48364 -31.99908,-5.36026 -31.33846,-44.61364 -30.43857,-52.04036 0.89999,-7.42656 5.70486,-20.80015 10.45243,-24.60868 3.70882,-0.29912 7.44176,-0.41388 7.44176,-0.41388 0,0 -11.04761,10.06956 -9.46758,34.97401 14.80492,1.43131 24.55986,-12.77889 25.68333,-21.35936 1.12332,-8.5803 0.97161,-41.16819 1.27671,-40.27119 0,0 38.80654,4.82047 44.61092,-40.05165 0.0309,-0.23858 0.37239,-0.26605 0.40939,-0.0283 3.26051,20.94366 -2.97886,61.38914 -9.24959,78.85396 -0.17449,0.48634 0.38321,0.93514 0.79576,0.6241 8.88698,-6.70021 16.60692,-42.62465 16.60692,-42.62465 0,0 0.67995,20.89974 12.58863,27.39586 11.90877,6.4962 22.42197,-0.50481 22.12594,0.0962 -0.29587,0.60104 -8.32645,6.52681 -4.81992,14.68719 z M 999.3016,266.73932 c 3.6184,3.24506 4.9637,8.16418 6.2095,13.36738 -0.105,-0.0551 -0.2037,-0.11546 -0.3099,-0.16985 -1.6658,-0.85621 -3.2653,-1.66691 -4.801,-2.4449 -0.90341,-0.45736 -1.76632,-0.8948 -2.61024,-1.32478 -2.10354,-2.94208 -4.25902,-7.02614 -5.77179,-13.58137 -0.0183,-0.0788 -0.041,-0.1525 -0.0596,-0.23089 1.66713,0.59711 4.10569,1.48085 7.34299,4.38441 z m -24.1727,-20.77283 c 1.63401,0.60812 3.87158,1.59436 6.73363,4.16142 5.64979,5.06672 5.77148,14.20332 8.6088,22.1489 -10.29017,-5.88787 -14.25462,-11.05468 -15.34243,-26.31032 z m 1.09925,308.35758 c -2.54506,8.17749 -6.6932,15.74676 -12.21176,22.29609 -16.35636,19.41151 -56.628,64.4849 -120.33457,118.68497 -25.79757,21.94798 -48.72893,37.48695 -70.68156,52.62313 -1.4926,1.02282 -3.51118,2.31906 -5.37157,3.49161 -4.11685,2.59441 -9.00369,3.69261 -13.82669,3.04601 -3.92963,-0.52675 -8.48204,-1.85999 -12.12043,-4.95578 -1.60624,-1.36673 -3.95144,0.1863 -3.30233,2.19295 3.56171,11.01068 19.71373,13.81056 13.7521,28.57196 -9.93838,24.60802 -30.87255,34.2683 -47.82028,44.17223 -4.68593,-14.82627 -7.33607,-28.10054 -5.75878,-58.00851 1.21121,-28.13136 12.75418,-52.00341 26.59528,-65.20569 0,0 12.86967,-16.18036 68.97344,-51.37574 55.68497,-39.5167 102.48367,-87.81311 124.99974,-105.47539 0.48657,1.84431 1.16623,5.73853 1.72569,9.18039 0.18847,1.15924 1.82667,1.24224 2.14444,0.11157 4.64414,-16.52678 2.63388,-23.60943 13.12934,-45.15106 26.81356,-55.03434 51.54757,-158.83535 50.86565,-158.54301 h 8e-5 c 2.08852,-16.10114 -26.33956,-25.88072 -54.55306,-32.92439 -28.36442,-7.08123 -20.92277,-18.744 -15.35903,-34.58413 5.56383,-15.84006 1.852,-26.371 5.48748,-33.62637 3.63531,-7.25543 7.36531,-8.35159 11.78089,-8.12286 2.83736,0.14693 6.40317,2.16676 8.59548,3.594 0.28522,8.73523 1.56202,24.72759 1.4564,32.50806 -0.12994,9.55327 0.0465,11.293 -7.22443,13.52195 -4.04158,1.23902 -4.90407,1.02981 -4.91001,2.45437 -0.005,1.10788 1.16446,0.6262 5.31827,0.14517 16.24451,-1.88071 12.07907,-10.36382 11.41134,-26.64778 -0.2417,-5.89706 -1.06705,-12.51018 -1.77708,-22.40527 -0.47251,-6.5848 -1.7558,-17.53788 -2.17039,-25.38107 -0.62684,-11.85493 -2.06487,-18.26006 1.23503,-20.67991 2.41608,-1.77157 7.96192,-1.90486 12.13991,1.26719 3.75763,2.85274 8.9196,11.66375 10.1637,37.67221 1.58604,33.16176 4.90211,38.1717 27.28441,49.50515 1.50885,0.76376 3.28689,1.24348 4.71795,2.40152 43.6225,35.29996 -9.1883,216.91515 -24.35467,265.64645 z"
       fill="#1b65a9"
       id="path883" />
  </g>
  <g
     id="uuid-df6f7660-c6c8-459a-9ed8-00adb7b59e6a"
     transform="translate(-199.29487,-173.09441)">
    <g
       id="g894">
      <path
         d="m 466.68385,604.26669 c 0,0 -2.73642,-6.5749 2.61228,-10.08747 5.62613,-3.69476 24.34907,-14.85364 78.46117,-17.60016 6.21154,0.68446 7.19628,6.66658 6.14931,10.68733 -1.24624,4.78602 -18.17203,76.71921 -45.08684,82.49836 -10.42062,1.99151 -19.45334,-15.43884 -28.97637,-35.17862 -9.52304,-19.73978 -13.15955,-30.31944 -13.15955,-30.31944 z"
         fill="#1b65a9"
         id="path886" />
      <path
         d="m 547.53472,581.64491 c 0.84375,0.15796 1.07568,0.49463 1.18115,0.64777 0.53394,0.77509 0.66248,2.33191 0.30591,3.7016 -0.054,0.20728 -0.13611,0.53455 -0.24573,0.97211 -11.26233,44.95117 -26.94824,74.76483 -40.95349,77.84937 -0.21204,0.0376 -0.42456,0.0567 -0.63232,0.0567 -1.79297,0 -4.9469,-1.47046 -9.79053,-8.47571 -4.36487,-6.31299 -8.82043,-15.31976 -13.00989,-24.00391 -9.24536,-19.16425 -12.89722,-29.66553 -12.93225,-29.76697 l -0.0188,-0.0884 -0.0839,-0.18665 c -0.26404,-0.70709 -0.90649,-2.88934 0.71216,-3.95233 13.89014,-9.12189 39.979,-14.91266 75.46765,-16.7536 m 0.22253,-5.06586 c -54.11206,2.74652 -72.83496,13.9054 -78.46106,17.60016 -5.34875,3.51257 -2.6123,10.08746 -2.6123,10.08746 0,0 3.63647,10.57965 13.15955,30.31946 9.02368,18.70483 17.60547,35.33411 27.3468,35.33411 0.53894,0 1.08313,-0.0511 1.62952,-0.15552 26.91479,-5.77911 43.84058,-77.71234 45.08691,-82.49835 1.04688,-4.02075 0.0621,-10.00287 -6.14941,-10.68732 v 0 z"
         fill="#1b65a9"
         id="path888" />
      <path
         d="m 480.56281,614.76111 c -0.35455,0.42566 -6.24078,-13.33868 1.87823,-17.11243 18.723,-8.70253 48.66111,-10.00581 48.66111,-10.00581 0,0 1.49194,4.88388 0.7284,8.1497 -0.34617,1.48065 -1.60154,2.59139 -3.10988,2.78394 -21.43672,2.73655 -38.22771,4.26272 -48.15787,16.1846 z"
         fill="#ffffff"
         id="path890" />
      <path
         d="m 507.94074,661.63441 c -0.37108,0.0199 -7.2626,-1.23373 -7.33118,-7.47143 -0.0546,-4.96853 11.49852,-19.81104 28.4599,-20.03687 0.6846,1.40941 -11.45205,26.98864 -21.12872,27.50829 z"
         fill="#ffffff"
         id="path892" />
    </g>
    <path
       d="m 524.39839,535.31769 v 0 c 1.2913,0 2.67726,-0.89815 2.63661,-2.1888 -0.59329,-18.83441 5.01306,-33.82952 17.59798,-34.66098 13.43124,-0.88738 19.02452,20.74239 18.70444,21.15912 -0.32017,0.41684 16.91595,-3.90537 24.07966,-12.15367 -8.34473,3.5307 -16.10654,4.36142 -15.88312,3.20768 0.22353,-1.15366 13.52739,-4.02312 14.03154,-15.89546 -12.53663,11.57657 -17.68909,9.4414 -17.57728,8.86452 0.11172,-0.57677 6.29995,-6.26097 8.39282,-14.59363 -2.64559,8.40516 -11.23195,10.09362 -11.23195,10.09362 0,0 0.97239,-6.87398 -1.32907,-10.13269 0,0 -2.12605,6.65045 -5.14629,6.48449 -2.42823,-1.36816 -7.10357,-8.43831 -15.55407,-7.14251 -26.68581,3.82594 -23.05635,36.0627 -21.35454,44.79103 0.246,1.26168 1.34785,2.16727 2.63329,2.16727 z"
       fill="#1b65a9"
       id="path896" />
    <path
       d="m 519.55902,487.40547 c 2.43747,-5.01458 8.45598,-13.40383 22.43375,-17.63839 14.05787,-4.25874 23.40315,1.22762 27.36381,4.42852 0.46888,0.37891 1.098,-0.17945 0.79917,-0.70309 -3.21515,-5.63343 -15.90128,-18.82653 -34.97072,-12.76466 -17.22845,5.47672 -16.8381,18.31401 -17.24109,26.25038 -0.047,0.92583 1.20987,1.26094 1.61509,0.42723 z"
       fill="#1b65a9"
       id="path898" />
    <path
       d="m 481.50595,551.53689 c -2.06291,-5.72626 -6.67472,-2.31024 -6.67472,-2.31024 0,0 -4.25836,4.68137 -5.39389,7.45383 -1.07543,2.62579 -1.35163,7.49993 5.97747,16.75426 0.80428,1.01553 2.10754,1.56383 3.37978,1.31979 2.35089,-0.45099 3.85451,-1.28107 4.85139,-2.11067 1.21081,-1.00774 1.10151,-2.90234 -0.15535,-3.85188 -2.02073,-1.52664 -4.84113,-4.00995 -5.6299,-6.46994 -2.33774,-9.2508 5.70813,-5.0589 3.64522,-10.78516 z"
       fill="#1b65a9"
       id="path900" />
    <path
       d="m 656.12442,561.24045 c 3.96669,-2.99229 8.44993,-7.2242 8.85799,-13.90505 0.74424,-12.18504 -6.44245,-19.11316 -12.88003,-20.33016 -6.43748,-1.21702 -11.96734,6.62949 -8.41556,10.84865 3.55188,4.21914 8.15606,-0.44513 11.10536,1.32316 5.3211,4.61165 2.38378,14.10846 -1.5925,20.41048 -1.16981,1.85408 1.17458,2.97315 2.92475,1.65292 z"
       fill="#1b65a9"
       id="path902" />
    <path
       d="m 677.17839,486.01387 c -5.84673,-21.04235 -23.08968,-93.16705 -79.23978,-113.57763 -2.3658,-0.86005 -4.06013,-21.21892 1.75981,-19.96728 33.0857,7.11529 80.58183,40.4209 99.4646,115.4193 0.17709,0.70368 5.81143,21.44648 -13.56762,23.98837 -3.83441,0.50291 -7.38172,-2.13665 -8.417,-5.86277 z"
       fill="#eb4f2e"
       id="path904" />
  </g>
</svg>
